<?xml version="1.0" encoding="utf-8"?>
<!-- Generator: Adobe Illustrator 22.0.0, SVG Export Plug-In . SVG Version: 6.00 Build 0)  -->
<svg version="1.1" id="Layer_1" xmlns="http://www.w3.org/2000/svg" xmlns:xlink="http://www.w3.org/1999/xlink" x="0px" y="0px"
	 viewBox="0 0 490 490" style="enable-background:new 0 0 490 490;" xml:space="preserve">
<style type="text/css">
	.st0{fill:#F5EA00;}
</style>
<path class="st0" d="M261,16v308.9c0,8.8-7.2,16-16,16s-16-7.2-16-16V16c0-8.8,7.2-16,16-16S261,7.2,261,16z"/>
<path class="st0" d="M346.2,239.7c0,4.1-1.6,8.2-4.7,11.3l-85.2,85.2c-6.2,6.2-16.4,6.2-22.6,0L148.5,251c-6.2-6.2-6.2-16.4,0-22.6
	c6.2-6.2,16.4-6.2,22.6,0l73.9,73.9l73.9-73.9c6.2-6.2,16.4-6.2,22.6,0C344.6,231.5,346.2,235.6,346.2,239.7z"/>
<path class="st0" d="M479.3,255.7C479.3,384.9,374.2,490,245,490S10.7,384.9,10.7,255.7c0-97,58.3-182.6,148.6-218.1
	c8.2-3.2,17.5,0.8,20.7,9s-0.8,17.5-9,20.7C93,98,42.6,171.9,42.6,255.7C42.6,367.2,133.4,458,245,458s202.4-90.8,202.4-202.4
	c0-83.7-50.4-157.7-128.3-188.4c-8.2-3.2-12.2-12.5-9-20.7s12.5-12.2,20.7-9C421,73.1,479.3,158.7,479.3,255.7z"/>
</svg>
