<?xml version="1.0" encoding="utf-8"?>
<!-- Generator: Adobe Illustrator 23.0.6, SVG Export Plug-In . SVG Version: 6.00 Build 0)  -->
<svg version="1.1" id="Layer_1" xmlns="http://www.w3.org/2000/svg" xmlns:xlink="http://www.w3.org/1999/xlink" x="0px" y="0px"
	 viewBox="0 0 212.3 173.5" style="enable-background:new 0 0 212.3 173.5;" xml:space="preserve">
<style type="text/css">
	.st0{fill-rule:evenodd;clip-rule:evenodd;fill:#05D0E5;}
	.st1{fill-rule:evenodd;clip-rule:evenodd;fill:#FFFFFF;}
</style>
<path id="euentrego-vertical" class="st0" d="M155.1,5.6L155.1,5.6c-32.2-7.4-65.7-7.4-97.9,0l0,0c-7.4,32.2-7.4,65.7,0,97.9l0,0
	c32.2,7.4,65.7,7.4,97.9,0l0,0C162.6,71.3,162.6,37.8,155.1,5.6z M69.8,35.9c0-7.1,5.8-12.9,12.9-12.9c7.1,0,12.9,5.8,12.9,12.9
	s-5.8,12.9-12.9,12.9c0,0,0,0,0,0C75.5,48.8,69.8,43,69.8,35.9C69.8,35.9,69.8,35.9,69.8,35.9z M116.9,86.1H95.1
	c-10.1,0-18.3-8.2-18.3-18.3c0.1-3.3,2.9-5.8,6.1-5.7c3.1,0.1,5.5,2.6,5.7,5.7c0,3.6,2.9,6.5,6.5,6.5h21.8c3.6,0,6.5-2.9,6.5-6.5
	c0.1-3.3,2.9-5.8,6.1-5.7c3.1,0.1,5.5,2.6,5.7,5.7C135.1,77.9,127,86.1,116.9,86.1z M140.1,41.8h-21.5c-3.3,0-5.9-2.6-6-5.8
	s2.6-5.9,5.8-6c0.1,0,0.1,0,0.2,0h21.5c3.3,0,5.9,2.6,6,5.8c0,3.3-2.6,5.9-5.8,6C140.2,41.8,140.1,41.8,140.1,41.8z M14.8,136.8
	c-7.9,0-13.2,6.4-14.5,13.7c-1.3,7.4,1.1,12.6,9.3,12.6c3.3,0,6.5-1,9.2-2.8l-1.1-3.9c-2,1.3-4.2,2.1-6.6,2.2
	c-4.2,0-5.5-3.1-5.1-6.3c4.6,0,14.2-1,15.5-8.6C22.2,139.3,19.6,136.8,14.8,136.8z M16.2,144c-0.7,3.8-7.1,4.6-9.8,4.6
	c0.8-3.7,3.3-7.5,7.3-7.5c1.2-0.2,2.4,0.7,2.5,1.9C16.3,143.3,16.3,143.6,16.2,144L16.2,144z M39.8,137.6l-2.9,16.3
	c-0.7,2.7-3,4.6-5.7,4.7c-3.3,0-3.5-2.2-2.9-5.2l2.8-15.8h-5.9l-3,16.8c-1,5.8,1.2,8.7,6.6,8.7c3,0,5.9-1.3,7.8-3.6h0.2l-0.2,2.9h5
	l0.3-4.2l3.7-20.7L39.8,137.6L39.8,137.6z M67.5,136.4c-8.4,0-13.9,6.9-15.2,14.1c-1.3,7.5,1.2,12.7,9.9,12.7c3.5,0,7-1,10-2.8
	L71,155c-1.9,1.2-4.2,2-6.5,2.1c-3,0-4.4-1.8-4.2-4c4.9-0.3,13.3-1.7,14.5-8.9C75.7,138.9,72.7,136.4,67.5,136.4L67.5,136.4z
	 M67.6,144.2c-0.4,2.4-4.2,3.7-6.8,3.8c0.7-3.4,2.8-5.8,5.3-5.8c0.8-0.1,1.6,0.5,1.7,1.4C67.7,143.8,67.7,144,67.6,144.2L67.6,144.2
	z M83.5,162.4l2.8-16c0.4-2.1,1.8-3.7,3.9-3.7c1.9,0,1.9,1.6,1.5,3.9l-2.8,15.9h8.3l3-17.3c1.1-6-1.5-8.7-6.4-8.7
	c-3,0-5.8,1.2-7.8,3.5l0-2.7h-6.9l-0.3,5.1l-3.6,20.2L83.5,162.4L83.5,162.4z M107.9,128.1l-4.5,25.3c-0.9,4.9-1.4,9.8,7,9.8
	c2.6,0,5.1-0.6,7.3-1.8l-0.9-5.2c-0.9,0.5-1.8,0.7-2.8,0.8c-1.7,0-2.8-0.7-2.4-3.4l1.8-10h6.2l1.1-6.5h-6.2l1.6-9H107.9z M131.5,147
	c0.3-2.1,2.1-3.6,4.2-3.6c1.2,0,2.4,0.3,3.4,0.8l2.5-6.9c-1.2-0.6-2.6-0.9-3.9-0.9c-2.1,0-4.8,1.1-6.7,4.2l0-3.5h-6.7l-0.2,4.8
	l-3.6,20.5h8.3L131.5,147z M154.5,136.4c-8.4,0-13.9,6.9-15.2,14.1c-1.3,7.5,1.2,12.7,9.9,12.7c3.5,0,7-1,10-2.8L158,155
	c-1.9,1.2-4.2,2-6.5,2.1c-3,0-4.4-1.8-4.2-4c4.9-0.3,13.3-1.7,14.5-8.9C162.7,138.9,159.7,136.4,154.5,136.4L154.5,136.4z
	 M154.6,144.2c-0.4,2.4-4.2,3.7-6.8,3.8c0.8-3.4,2.8-5.8,5.3-5.8c0.8-0.1,1.6,0.5,1.7,1.4C154.7,143.8,154.7,144,154.6,144.2
	L154.6,144.2z M184.3,146.2c0.3-1.4,0.1-2.9-0.5-4.2l0.1-0.2l4.4,0.3l0.9-5.4l-8,0.9c-1.7-0.9-3.6-1.3-5.6-1.2
	c-5.9,0-10.6,3.5-11.6,9.1c-0.5,3,0.2,5.9,2.6,7.5l-2.1,3.4c-0.6,0.8-1,1.7-1.3,2.7c-0.3,1.1,0.3,2.2,1.3,2.6
	c-1.9,1.3-4.2,2.9-4.7,5.6c-0.7,3.8,2,6.3,10.3,6.3c8.8,0,13.6-4,14.5-8.6c1-5.6-2.9-6.7-9.2-7.8l-4.8-0.8l1-2
	c0.6,0.1,1.2,0.1,1.8,0.1C178.3,154.4,183.3,152,184.3,146.2L184.3,146.2z M172.9,163.2c2.6,0.3,3.9,0.8,3.7,2.2c-0.3,2-2.5,3-5.5,3
	c-4.1,0-4.2-1.6-4-2.6c0.3-1.3,1.2-2.4,2.3-3.1L172.9,163.2z M173.7,149.8c-1.9,0-2.4-1.7-1.8-4.7c0.5-3.1,1.9-4.2,3.3-4.2
	c1.7,0,2.4,1.4,1.8,4.7C176.5,148.4,175.3,149.8,173.7,149.8L173.7,149.8z M198.6,157.2c-2.9,0-2.7-3.9-1.9-8.2
	c0.7-4.1,2.2-6.7,4.5-6.7c2.5,0,2.9,2.6,2,7.6C202.4,154.8,201.1,157.2,198.6,157.2z M188.2,150c-1.6,9,2,13.2,9.1,13.2
	c6.8,0,13.1-4.7,14.7-14c2.1-11.6-5.3-12.8-9.3-12.8C197.3,136.4,190,139.6,188.2,150L188.2,150z"/>
</svg>
