<?xml version="1.0" encoding="utf-8"?>
<!-- Generator: Adobe Illustrator 21.0.0, SVG Export Plug-In . SVG Version: 6.00 Build 0)  -->
<svg version="1.1" id="Layer_1" xmlns="http://www.w3.org/2000/svg" xmlns:xlink="http://www.w3.org/1999/xlink" x="0px" y="0px"
	 viewBox="0 0 891.2 488" style="enable-background:new 0 0 891.2 488;" xml:space="preserve">
<style type="text/css">
	.st0{fill-rule:evenodd;clip-rule:evenodd;fill:#58595B;}
	.st1{fill-rule:evenodd;clip-rule:evenodd;fill:#00ACEC;}
	.st2{fill:#58595B;}
</style>
<g>
	<path class="st0" d="M670.9,337.3c-9.3,0-17.5-3.1-24.6-9.3c-245.9-219.4-115.2-104-233.7-209.8h102.5
		c104.8,0,152.3,36.4,151.7,35.1l9.1,8.2l123-75.6c4.3-2.6,8.1-5.3,12.3-6.6c4.2-1.3,9.2-1.9,14.8-1.9H870c5.9,0,8.9,2.3,8.9,6.8
		c0,2.8-1.3,5.9-4.7,8.1L711.5,193.5c15.1,13.5,47.2,42.2,142.9,127.7c3,2.7,4.7,5.2,4.7,8c0,5.4-3.7,8.1-11,8.1H670.9z"/>
</g>
<g>
	<path class="st1" d="M404.3,328.8c-4.3,2.6-8.1,5.3-12.3,6.6c-4.2,1.3-9.2,1.9-14.8,1.9h-43.9c-5.9,0-8.9-2.3-8.9-6.8
		c0-2.8,1.3-5.9,4.7-8.1l183.4-114.1c9,8.1,20.7,18.5,35.8,32L404.3,328.8z"/>
</g>
<g>
	<path class="st1" d="M248.2,120.8c-18.6,0-31.6,4.9-39,14.6c-7.3,9.7-11,25.7-11,47.7v142.7c0,7.6-3.8,11.4-11.4,11.4H24.5
		c-7.3,0-11-3.8-11-11.4V167.8c0-17.2,2.6-33.2,7.6-47.9C26.2,105.2,33.8,92.6,44,82c10.2-10.6,23-18.9,38.6-24.8
		c15.5-5.9,33.9-8.9,55.1-8.9h339.6c70.6,0,135.8,54,188.9,104.1c7.4,7-36.4-31.6-148.5-31.6H248.2L248.2,120.8z M239.7,241.5h138.4
		c7.6,0,11.4-2.6,11.4-7.6v-48.2c0-5.1-3.8-7.6-11.4-7.6H239.7c-7.6,0-11.4,3.7-11.4,11v41.4C228.3,237.8,232.2,241.5,239.7,241.5z"
		/>
</g>
<g>
	<path class="st2" d="M64.6,440.4H48.9l-9.4-15.2c-0.7-1.2-1.4-2.2-2-3.1c-0.6-0.9-1.3-1.7-2-2.3c-0.7-0.6-1.4-1.1-2.1-1.5
		c-0.7-0.3-1.5-0.5-2.3-0.5h-3.7v22.6H13.7v-59.1h21.7c14.7,0,22.1,5.4,22.1,16.1c0,2.1-0.3,4-1,5.7c-0.6,1.7-1.6,3.3-2.8,4.7
		c-1.2,1.4-2.6,2.6-4.3,3.6c-1.7,1-3.5,1.8-5.6,2.4v0.2c0.9,0.3,1.8,0.7,2.6,1.3c0.8,0.6,1.7,1.3,2.5,2.2c0.8,0.8,1.5,1.7,2.3,2.7
		c0.7,0.9,1.4,1.9,2,2.8L64.6,440.4z M27.4,391.3v16.4h5.9c2.9,0,5.3-0.8,7.1-2.5c1.8-1.7,2.7-3.8,2.7-6.2c0-5.2-3.2-7.8-9.5-7.8
		H27.4z"/>
	<path class="st2" d="M124,423H95.7c0.5,6.1,4.4,9.2,11.9,9.2c4.8,0,9-1.1,12.6-3.3v9.4c-4,2.1-9.2,3.1-15.6,3.1
		c-7,0-12.4-1.9-16.3-5.7c-3.9-3.8-5.8-9-5.8-15.8c0-7,2.1-12.6,6.3-16.7c4.2-4.1,9.3-6.1,15.4-6.1c6.3,0,11.2,1.8,14.7,5.5
		c3.5,3.7,5.2,8.6,5.2,14.9V423z M111.6,415c0-6-2.5-9.1-7.5-9.1c-2.1,0-4,0.9-5.6,2.6c-1.6,1.7-2.5,3.9-2.9,6.5H111.6z"/>
	<path class="st2" d="M176.4,439.9c-2,1-5,1.5-8.9,1.5c-9.4,0-14.1-4.8-14.1-14.3v-19.3h-7v-9.6h7v-9.1l13.3-3.7v12.8h9.7v9.6h-9.7
		v17.1c0,4.4,1.8,6.6,5.4,6.6c1.4,0,2.9-0.4,4.4-1.2V439.9z"/>
	<path class="st2" d="M238.2,440.4h-12.7v-6.1h-0.2c-2.9,4.7-7.2,7.1-12.9,7.1c-4.2,0-7.5-1.2-9.9-3.5c-2.4-2.3-3.6-5.4-3.6-9.3
		c0-8.2,5-12.9,14.9-14.2l11.8-1.5c0-4.6-2.6-6.9-7.7-6.9c-5.2,0-10.1,1.5-14.7,4.5v-9.8c1.9-0.9,4.4-1.8,7.6-2.5
		c3.2-0.7,6.2-1.1,8.8-1.1c12.4,0,18.5,6,18.5,18V440.4z M225.6,423.2v-2.8l-7.9,1c-4.3,0.5-6.5,2.5-6.5,5.7c0,1.5,0.5,2.7,1.6,3.6
		c1.1,0.9,2.5,1.4,4.3,1.4c2.5,0,4.6-0.8,6.1-2.5C224.8,428,225.6,425.8,225.6,423.2z"/>
	<path class="st2" d="M273.7,391.5c-2.3,0-4.1-0.7-5.5-2c-1.4-1.3-2.2-2.9-2.2-4.8c0-2,0.7-3.5,2.2-4.8c1.4-1.2,3.3-1.9,5.5-1.9
		c2.3,0,4.1,0.6,5.6,1.9c1.4,1.2,2.1,2.8,2.1,4.8c0,2-0.7,3.6-2.1,4.9C277.9,390.9,276,391.5,273.7,391.5z M280.3,440.4H267v-42.2
		h13.4V440.4z"/>
	<path class="st2" d="M323.2,440.4h-13.4v-62.5h13.4V440.4z"/>
	<path class="st2" d="M436.4,440.4l-6.7-17.5h-26l-6.5,17.5h-6.3l23.1-59.1h5.7l23,59.1H436.4z M417.9,391.6
		c-0.2-0.5-0.4-1.1-0.6-1.8c-0.2-0.7-0.4-1.5-0.5-2.3h-0.2c-0.2,0.9-0.4,1.7-0.6,2.3c-0.2,0.7-0.4,1.3-0.6,1.8l-9.8,26.3h22.2
		L417.9,391.6z"/>
	<path class="st2" d="M498.8,440.4v-24.3c0-9.5-3.6-14.3-10.7-14.3c-1.9,0-3.6,0.4-5.2,1.1c-1.6,0.7-3,1.7-4.2,3
		c-1.2,1.3-2.1,2.8-2.8,4.6c-0.7,1.8-1,3.7-1,5.8v24.2h-5.4v-42.2h5.4v7.3h0.2c3.2-5.6,8.1-8.3,14.5-8.3c4.7,0,8.4,1.5,10.8,4.5
		c2.5,3,3.7,7.3,3.7,13v25.7H498.8z"/>
	<path class="st2" d="M560.4,440.4v-7.5h-0.2c-1.4,2.7-3.3,4.8-5.8,6.3c-2.4,1.5-5.2,2.2-8.3,2.2c-2.1,0-4-0.3-5.7-0.9
		c-1.7-0.6-3.1-1.4-4.3-2.5c-1.2-1.1-2.1-2.3-2.7-3.8c-0.6-1.5-1-3.1-1-4.9c0-3.8,1.2-6.9,3.6-9.1c2.4-2.3,6.1-3.7,11-4.4l13.2-1.9
		c0-8.1-3.2-12.2-9.7-12.2c-5.1,0-9.7,1.8-14.1,5.4v-5.8c0.9-0.6,1.9-1.2,3.1-1.7c1.1-0.5,2.3-0.9,3.6-1.3c1.3-0.4,2.6-0.7,3.9-0.9
		c1.3-0.2,2.6-0.3,3.9-0.3c4.8,0,8.5,1.3,10.9,4c2.5,2.6,3.7,6.6,3.7,11.8v27.5H560.4z M549.2,419.9c-1.9,0.3-3.6,0.6-5,1
		c-1.4,0.4-2.5,1-3.4,1.7c-0.9,0.7-1.6,1.6-2,2.6c-0.4,1-0.6,2.3-0.6,3.8c0,1.1,0.2,2.2,0.6,3.1c0.4,1,1,1.8,1.8,2.5
		c0.8,0.7,1.7,1.2,2.8,1.6c1.1,0.4,2.4,0.6,3.8,0.6c1.9,0,3.7-0.4,5.3-1.1c1.6-0.7,3-1.7,4.2-3c1.2-1.3,2.1-2.8,2.8-4.5
		c0.7-1.8,1-3.7,1-5.7v-4.2L549.2,419.9z"/>
	<path class="st2" d="M597.1,440.4v-62.5h5.4v62.5H597.1z"/>
	<path class="st2" d="M647.2,448.1c-1.7,4.1-3.6,7.2-5.8,9.2c-2.2,2-4.9,3-8,3c-1.6,0-2.9-0.2-3.9-0.5v-4.9c0.6,0.2,1.2,0.4,1.9,0.5
		c0.6,0.1,1.3,0.2,1.9,0.2c1.8,0,3.3-0.5,4.6-1.6c1.3-1.1,2.4-2.7,3.4-4.9l3.8-8.7l-16.7-42h6l12.4,33.4c0.2,0.4,0.3,0.9,0.5,1.5
		c0.2,0.6,0.3,1.1,0.4,1.7h0.2c0.1-0.5,0.3-0.9,0.4-1.4c0.1-0.5,0.3-1,0.5-1.6l13.2-33.6h5.7L647.2,448.1z"/>
	<path class="st2" d="M712.4,439.9c-1.9,0.9-3.9,1.4-6.1,1.4c-7,0-10.5-3.9-10.5-11.8v-26.7h-7.6v-4.6h7.6v-10.6l5.4-1.7v12.4h11.2
		v4.6h-11.2v25.8c0,2.9,0.5,4.9,1.4,6.2c1,1.3,2.6,1.9,4.9,1.9c1.7,0,3.3-0.5,4.9-1.5V439.9z"/>
	<path class="st2" d="M742.2,387.5c-1,0-1.9-0.4-2.7-1.1c-0.8-0.7-1.1-1.6-1.1-2.7c0-1.1,0.4-2,1.1-2.7c0.8-0.7,1.7-1.1,2.7-1.1
		c0.5,0,1,0.1,1.5,0.3c0.5,0.2,0.9,0.4,1.2,0.8c0.4,0.3,0.6,0.7,0.8,1.2c0.2,0.5,0.3,1,0.3,1.5c0,0.5-0.1,1-0.3,1.5
		c-0.2,0.5-0.5,0.9-0.8,1.2c-0.4,0.3-0.8,0.6-1.2,0.8C743.2,387.4,742.7,387.5,742.2,387.5z M739.5,440.4v-42.2h5.4v42.2H739.5z"/>
	<path class="st2" d="M805.9,438.5c-3.2,1.9-7.1,2.9-11.7,2.9c-3.1,0-5.9-0.5-8.4-1.6c-2.5-1.1-4.6-2.6-6.4-4.5
		c-1.8-1.9-3.1-4.2-4-6.8c-0.9-2.6-1.4-5.4-1.4-8.5c0-3.2,0.5-6.1,1.5-8.9c1-2.8,2.4-5.2,4.3-7.3c1.9-2.1,4.2-3.7,6.9-4.9
		c2.7-1.2,5.9-1.8,9.4-1.8c3.6,0,6.9,0.7,9.8,2v5.6c-3.2-2-6.6-3-10.2-3c-2.6,0-4.9,0.5-6.9,1.4c-2,0.9-3.7,2.2-5.1,3.9
		c-1.4,1.6-2.4,3.5-3.1,5.7c-0.7,2.2-1.1,4.5-1.1,6.9c0,2.3,0.3,4.4,0.9,6.5c0.6,2.1,1.5,3.9,2.8,5.5c1.3,1.6,2.8,2.8,4.8,3.8
		c1.9,0.9,4.2,1.4,6.8,1.4c4.1,0,7.7-1.2,11-3.5V438.5z"/>
	<path class="st2" d="M832.1,432.8c0.8,0.6,1.7,1.2,2.7,1.7c1,0.5,1.9,0.9,3,1.3c1,0.4,2,0.6,3.1,0.8c1,0.2,2,0.3,2.9,0.3
		c6.4,0,9.7-2.3,9.7-7c0-1.1-0.2-2-0.7-2.8c-0.5-0.8-1.1-1.5-1.9-2.1c-0.8-0.6-1.9-1.2-3-1.8c-1.2-0.5-2.5-1.1-4-1.7
		c-2-0.8-3.7-1.6-5.2-2.4c-1.4-0.8-2.6-1.7-3.6-2.7c-0.9-1-1.6-2-2.1-3.2c-0.5-1.2-0.7-2.5-0.7-4c0-1.9,0.4-3.5,1.2-5
		c0.8-1.5,2-2.7,3.4-3.7c1.4-1,3-1.8,4.9-2.3c1.8-0.5,3.8-0.8,5.8-0.8c3.8,0,7,0.7,9.8,2.1v5.6c-3.2-2-6.7-3-10.5-3
		c-1.4,0-2.6,0.2-3.7,0.5c-1.1,0.3-2.1,0.8-2.9,1.4c-0.8,0.6-1.4,1.3-1.8,2.2c-0.4,0.8-0.7,1.8-0.7,2.8c0,1,0.2,2,0.5,2.7
		c0.3,0.8,0.9,1.5,1.6,2.1c0.7,0.6,1.7,1.2,2.8,1.8c1.1,0.6,2.5,1.2,4.2,1.9c2.1,0.8,3.9,1.6,5.4,2.5c1.5,0.8,2.8,1.7,3.8,2.6
		c1,0.9,1.7,2,2.2,3.2c0.5,1.2,0.7,2.5,0.7,4.1c0,1.9-0.4,3.6-1.2,5.1c-0.8,1.5-1.9,2.7-3.3,3.8c-1.4,1-3.1,1.8-5,2.3
		c-1.9,0.5-4,0.8-6.3,0.8c-4.4,0-8.1-0.9-11-2.7V432.8z"/>
</g>
</svg>
