<?xml version="1.0" encoding="utf-8"?>
<!-- Generator: Adobe Illustrator 22.1.0, SVG Export Plug-In . SVG Version: 6.00 Build 0)  -->
<svg version="1.1" id="Layer_1" xmlns="http://www.w3.org/2000/svg" xmlns:xlink="http://www.w3.org/1999/xlink" x="0px" y="0px"
	 viewBox="0 0 457.5 243.2" style="enable-background:new 0 0 457.5 243.2;" xml:space="preserve">
<style type="text/css">
	.st0{fill:#009FE3;}
	.st1{fill:#009640;}
</style>
<g>
	<g>
		<path d="M4.5,115.3h31.1c15.8,0,21.9,9.6,21.9,24.7c0,9.4-2.7,24.2-23,24.2H21.7v33.6H4.5V115.3z M21.7,151.5h9.6
			c5.1,0,8.7-5.6,8.7-11.1c0-6.7-1.8-12.5-9.6-12.5h-8.7V151.5z"/>
		<path d="M80.3,197.8H63v-82.5h31.9c11.8,0,19.3,7.5,19.3,21.6c0,10.5-4.1,18.4-15.3,20.2v0.2c3.8,0.5,15,1.4,15,16.2
			c0,5.3,0.3,20.8,1.9,24.2H98.9c-2.3-5-1.8-10.6-1.8-16c0-9.8,0.9-18.2-12.3-18.2h-4.5V197.8z M80.3,150.9h7.7
			c6.9,0,8.8-6.9,8.8-12.1c0-7.9-3.3-10.9-8.8-10.9h-7.7V150.9z"/>
		<path d="M122.3,197.8v-82.5h45V128h-27.8v20.3h25.6V161h-25.6v24.1h28.7v12.7H122.3z"/>
		<path d="M174.1,156.5c0-21.8,0-42.6,28.5-42.6c17.6,0,24.7,9.7,24,27.4h-16.9c0-11-1.9-15.1-7.1-15.1c-9.7,0-11,9.1-11,30.3
			c0,21.1,1.3,30.3,11,30.3c8,0,7.7-10.3,7.9-16.8h17c0,22.1-8.8,29.1-24.9,29.1C174.1,199.2,174.1,178.1,174.1,156.5z"/>
		<path d="M233.9,197.8v-82.5h17.3v82.5H233.9z"/>
		<path d="M260.7,197.8v-82.5h42.9V128H278v21.1h24.5v12.7H278v36H260.7z"/>
		<path d="M307.2,197.8v-82.5h17.3v82.5H307.2z"/>
		<path d="M333.6,156.5c0-21.8,0-42.6,28.5-42.6c17.6,0,24.7,9.7,24,27.4h-16.9c0-11-1.9-15.1-7.1-15.1c-9.7,0-11,9.1-11,30.3
			c0,21.1,1.3,30.3,11,30.3c8,0,7.7-10.3,7.9-16.8h17c0,22.1-8.8,29.1-24.9,29.1C333.6,199.2,333.6,178.1,333.6,156.5z"/>
		<path d="M387.1,197.8l22.9-82.5h22.7l22.4,82.5h-18.2l-4.6-18.3h-23.5l-4.7,18.3H387.1z M420.4,131.2h-0.2l-7.9,35.7h16.5
			L420.4,131.2z"/>
	</g>
	<g>
		<path d="M56.1,221.6c1.1-0.2,2.4-0.3,4.2-0.3c2.2,0,3.7,0.5,4.8,1.4c0.9,0.8,1.5,2,1.5,3.5c0,1.5-0.5,2.7-1.3,3.6
			c-1.2,1.2-3,1.9-5.2,1.9c-0.7,0-1.3,0-1.8-0.2v6.8h-2.2V221.6z M58.3,229.8c0.5,0.1,1.1,0.2,1.8,0.2c2.6,0,4.2-1.3,4.2-3.6
			c0-2.3-1.6-3.3-4-3.3c-1,0-1.7,0.1-2.1,0.2V229.8z"/>
		<path d="M76.8,221.6c1.1-0.2,2.7-0.4,4.2-0.4c2.3,0,3.9,0.5,4.9,1.4c0.8,0.8,1.3,1.9,1.3,3.2c0,2.2-1.4,3.7-3.2,4.3v0.1
			c1.3,0.5,2.1,1.7,2.5,3.4c0.6,2.4,1,4,1.3,4.7h-2.3c-0.3-0.5-0.7-1.9-1.1-4c-0.5-2.3-1.4-3.2-3.4-3.3H79v7.3h-2.2V221.6z
			 M79,229.4h2.2c2.3,0,3.8-1.3,3.8-3.2c0-2.2-1.6-3.1-3.9-3.1c-1.1,0-1.8,0.1-2.2,0.2V229.4z"/>
		<path d="M106.4,230.4h-6.6v6.1h7.3v1.8h-9.6v-16.9h9.2v1.8h-7v5.4h6.6V230.4z"/>
		<path d="M129.1,237.8c-0.8,0.4-2.3,0.8-4.4,0.8l-0.6,1c1,0.2,1.8,0.9,1.8,1.9c0,1.5-1.3,2-2.6,2c-0.7,0-1.3-0.2-1.8-0.4l0.4-1.1
			c0.4,0.2,0.9,0.4,1.4,0.4c0.6,0,1.1-0.2,1.1-0.8c0-0.7-0.8-0.9-2-1.1l1.1-1.9c-4.1-0.5-7.1-3.4-7.1-8.5c0-5.3,3.6-8.9,8.9-8.9
			c2.1,0,3.4,0.5,4,0.8l-0.5,1.8c-0.8-0.4-2-0.7-3.4-0.7c-4,0-6.6,2.5-6.6,7c0,4.2,2.4,6.8,6.5,6.8c1.3,0,2.7-0.3,3.6-0.7
			L129.1,237.8z"/>
		<path d="M153.2,229.7c0,5.8-3.5,8.9-7.9,8.9c-4.5,0-7.6-3.5-7.6-8.6c0-5.4,3.3-8.9,7.8-8.9C150.3,221.1,153.2,224.7,153.2,229.7z
			 M140.1,230c0,3.6,2,6.9,5.4,6.9c3.5,0,5.4-3.2,5.4-7c0-3.4-1.8-6.9-5.4-6.9C141.9,222.9,140.1,226.3,140.1,230z"/>
		<path d="M178.2,221.4v16.9H176v-16.9H178.2z"/>
		<path d="M189.3,238.4v-16.9h2.4l5.4,8.6c1.2,2,2.2,3.8,3,5.5l0.1,0c-0.2-2.3-0.3-4.3-0.3-7v-7.1h2.1v16.9h-2.2l-5.4-8.6
			c-1.2-1.9-2.3-3.8-3.1-5.7l-0.1,0c0.1,2.1,0.2,4.2,0.2,7v7.2H189.3z"/>
		<path d="M216.3,223.3h-5.2v-1.9h12.5v1.9h-5.2v15.1h-2.2V223.3z"/>
		<path d="M241.7,230.4h-6.6v6.1h7.3v1.8h-9.6v-16.9h9.2v1.8h-7v5.4h6.6V230.4z"/>
		<path d="M252.5,221.4h2.2v15.1h7.2v1.8h-9.5V221.4z"/>
		<path d="M273.9,221.4v16.9h-2.2v-16.9H273.9z"/>
		<path d="M297.9,237.6c-1,0.4-2.9,0.9-5.2,0.9c-2.6,0-4.7-0.7-6.3-2.2c-1.5-1.4-2.4-3.7-2.4-6.3c0-5.1,3.5-8.8,9.2-8.8
			c2,0,3.5,0.4,4.2,0.8l-0.6,1.8c-0.9-0.4-2-0.7-3.7-0.7c-4.1,0-6.8,2.6-6.8,6.8c0,4.3,2.6,6.8,6.5,6.8c1.4,0,2.4-0.2,2.9-0.5v-5.1
			h-3.4v-1.8h5.6V237.6z"/>
		<path d="M317.3,230.4h-6.6v6.1h7.3v1.8h-9.6v-16.9h9.2v1.8h-7v5.4h6.6V230.4z"/>
		<path d="M328.2,238.4v-16.9h2.4l5.4,8.6c1.2,2,2.2,3.8,3,5.5l0.1,0c-0.2-2.3-0.3-4.3-0.3-7v-7.1h2.1v16.9h-2.2l-5.4-8.6
			c-1.2-1.9-2.3-3.8-3.1-5.7l-0.1,0c0.1,2.1,0.2,4.2,0.2,7v7.2H328.2z"/>
		<path d="M355.3,223.3h-5.2v-1.9h12.5v1.9h-5.2v15.1h-2.2V223.3z"/>
		<path d="M380.6,230.4H374v6.1h7.3v1.8h-9.6v-16.9h9.2v1.8h-7v5.4h6.6V230.4z"/>
	</g>
	<path class="st0" d="M290.4,58.9l19.7-25L274.9,6.2c-1.3-1-2.9-1.5-4.4-1.5c-2.1,0-4.3,0.9-5.7,2.7l-43.2,55
		c-2.4,3.1-4.1,8.9-3.6,12.8l1,8.3c0.5,3.9,3.4,9.2,6.5,11.6l12.2,9.6c2.7,2.2,7.6,3.7,11.4,3.7c0.5,0,1,0,1.4-0.1l8.3-1
		c3.9-0.5,9.2-3.4,11.6-6.5L286,80.8l-0.5-4.4C284.8,70.8,286.9,63.3,290.4,58.9z M249,91.4c-1.7,2.2-4.2,3.3-6.7,3.3
		c-1.9,0-3.7-0.6-5.3-1.8c-3.7-2.9-4.3-8.3-1.4-12c1.7-2.1,4.2-3.3,6.7-3.3c1.9,0,3.7,0.6,5.3,1.8C251.3,82.3,251.9,87.7,249,91.4z"
		/>
	<path class="st1" d="M386.2,36.2L348.8,6.7c-1.3-1-2.9-1.5-4.4-1.5c-2.1,0-4.3,0.9-5.7,2.7l-19.9,25.3l-2.1,2.6l-2.2,2.8
		l-19.1,24.3c-2,2.6-3.4,6.9-3.6,10.6c0,0.8,0,1.5,0,2.2l0.3,2.5l0.5,4.5l0.2,1.3c0.5,3.9,3.4,9.2,6.5,11.6l12.2,9.6
		c2.8,2.2,7.6,3.7,11.4,3.7c0.5,0,1,0,1.4-0.1l8.3-1c3.9-0.5,9.2-3.4,11.6-6.5l43.2-55C389.9,43.2,389.3,38.6,386.2,36.2z M322.9,92
		c-1.7,2.2-4.2,3.3-6.7,3.3c-1.9,0-3.7-0.6-5.3-1.8c-3.7-2.9-4.4-8.3-1.4-12c1.7-2.1,4.2-3.3,6.7-3.3c1.9,0,3.7,0.6,5.3,1.8
		C325.2,82.9,325.8,88.2,322.9,92z"/>
</g>
<g>
</g>
<g>
</g>
<g>
</g>
<g>
</g>
<g>
</g>
<g>
</g>
</svg>
