<?xml version="1.0" encoding="utf-8"?>
<!-- Generator: Adobe Illustrator 23.1.0, SVG Export Plug-In . SVG Version: 6.00 Build 0)  -->
<svg version="1.1" id="Camada_1" xmlns="http://www.w3.org/2000/svg" xmlns:xlink="http://www.w3.org/1999/xlink" x="0px" y="0px"
	 viewBox="0 0 1080 577.4" style="enable-background:new 0 0 1080 577.4;" xml:space="preserve">
<style type="text/css">
	.st0{fill:#1D4696;}
</style>
<g>
	<g>
		<polygon class="st0" points="397.6,83 474.6,122.5 532.3,91.1 532.4,9.5 		"/>
		<polygon class="st0" points="547.4,9.5 682.2,83 605.2,122.5 547.4,91.1 		"/>
		<polygon class="st0" points="389.2,95.5 464.5,134.1 464.5,201.9 389.2,242.9 		"/>
		<polygon class="st0" points="490.7,130.8 539.8,104 589.1,130.8 539.9,156.1 		"/>
		<polygon class="st0" points="479.6,141.8 532.4,169 532.4,230.6 479.6,201.9 		"/>
		<polygon class="st0" points="615.1,134.2 690.6,95.4 690.6,242.9 615.1,201.9 		"/>
		<polygon class="st0" points="547.4,169 600.1,141.9 600.1,201.9 547.4,230.5 		"/>
		<polygon class="st0" points="547.4,247.5 607.6,214.7 682.6,255.5 547.4,329.1 		"/>
		<polygon class="st0" points="397.3,255.5 532.4,329.1 532.3,247.5 472.1,214.7 		"/>
	</g>
	<g>
		<path class="st0" d="M81.3,510.1v20.2H62.6v-20.2H8.3v-17.9L55.6,396h20.7l-47.1,96.2h33.4v-31.3h18.7v31.3h14.3v17.9H81.3z"/>
		<path class="st0" d="M116,415.8v-20.4h20.4v20.4H116z M116.5,530.3v-95.6h19.2v95.6H116.5z"/>
		<path class="st0" d="M223.6,530.3V472c0-14.2-6.4-21.3-19.2-21.3c-5.8,0-10.4,1.7-14,5.1c-3.9,3.8-5.8,9.2-5.8,16.2v58.3h-19.2
			v-95.6h18.9v9.6c6.7-7.2,15.1-10.7,25.5-10.7c9.7,0,17.5,2.9,23.6,8.7c6.4,6.3,9.6,15.3,9.6,27v61.1H223.6z"/>
		<path class="st0" d="M300,530.3c-8.4,0-15-2.7-19.8-8.1c-4.3-4.9-6.4-11.1-6.4-18.5v-52.6h-10.9v-14.7h10.9v-29H293v29h18.5v14.7
			H293v51.7c0,7.4,3.5,11.1,10.6,11.1h7.9v16.4H300z"/>
		<path class="st0" d="M348.3,491c0.5,7.4,2.8,13.2,7,17.3c4.3,4.4,10,6.6,17.2,6.6c9.1,0,16.8-3.3,23.2-9.8l12.3,11.5
			c-9.8,9.9-21.7,14.9-35.8,14.9c-12.9,0-23.1-3.6-30.4-10.9c-8.4-8.3-12.6-21-12.6-38.1c0-15.2,3.7-27.2,11.1-36
			c7.3-8.5,17.1-12.8,29.4-12.8c12.7,0,22.6,4.3,29.8,12.8c7.2,8.3,10.7,19.4,10.7,33.2v8.7h-46.6v-13.6h27.7
			c-0.3-4.9-1.1-9.2-2.6-13c-3.4-8-9.7-12.1-19-12.1c-9.3,0-15.6,4-19,12.1c-1.3,3-2,6.3-2.3,9.8V491z"/>
		<path class="st0" d="M460.8,530.3c-8.7,0-15.3-2.6-20-7.9c-4.1-4.7-6.2-10.8-6.2-18.5V396h19.2v106.7c0,7.4,3.5,11.1,10.4,11.1
			h8.5v16.4H460.8z"/>
		<path class="st0" d="M518.5,530.3c-8.7,0-15.3-2.6-20-7.9c-4.1-4.7-6.2-10.8-6.2-18.5V396h19.2v106.7c0,7.4,3.5,11.1,10.4,11.1
			h8.5v16.4H518.5z"/>
		<path class="st0" d="M550,415.8v-20.4h20.4v20.4H550z M550.6,530.3v-95.6h19.2v95.6H550.6z"/>
		<path class="st0" d="M653.2,480.7c0-9.3-1.1-16.2-3.2-20.7c-3-6.2-8.5-9.2-16.4-9.2c-7.8,0-13.2,3.1-16.2,9.2
			c-2.3,4.5-3.4,11.4-3.4,20.7c0,9.3,1.1,16.2,3.4,20.7c3,6.2,8.4,9.2,16.2,9.2c1.1,0,2.3-0.1,3.4-0.2v16.8
			c-2.8,0.5-5.7,0.8-8.7,0.8c-9.6,0-17.2-2.8-22.8-8.5c-7.2-7.2-10.7-20.1-10.7-38.8c0-18.7,3.6-31.7,10.7-38.8
			c5.5-5.5,13.2-8.3,23-8.3c10.6,0,19,3.8,25.3,11.3v-10.2h18.7v95c0,11.9-3.6,21.6-10.9,29c-7.5,7.7-17.6,11.5-30.2,11.5
			c-13.3,0-24.6-4.2-33.8-12.6l12.3-12.3c6,5.7,12.9,8.5,20.7,8.5c7.7,0,13.5-2.5,17.3-7.4c3.5-4.3,5.3-10,5.3-17.2V480.7z"/>
		<path class="st0" d="M715.8,491c0.5,7.4,2.8,13.2,7,17.3c4.3,4.4,10,6.6,17.2,6.6c9,0,16.8-3.3,23.2-9.8l12.3,11.5
			c-9.8,9.9-21.7,14.9-35.8,14.9c-12.9,0-23.1-3.6-30.4-10.9c-8.4-8.3-12.6-21-12.6-38.1c0-15.2,3.7-27.2,11.1-36
			c7.3-8.5,17.1-12.8,29.4-12.8c12.7,0,22.6,4.3,29.8,12.8c7.2,8.3,10.7,19.4,10.7,33.2v8.7H731v-13.6h27.7c-0.3-4.9-1.1-9.2-2.6-13
			c-3.4-8-9.7-12.1-19-12.1c-9.3,0-15.6,4-19,12.1c-1.3,3-2,6.3-2.3,9.8V491z"/>
		<path class="st0" d="M860.9,530.3V472c0-14.2-6.4-21.3-19.2-21.3c-5.8,0-10.4,1.7-14,5.1c-3.9,3.8-5.8,9.2-5.8,16.2v58.3h-19.2
			v-95.6h18.9v9.6c6.7-7.2,15.1-10.7,25.5-10.7c9.7,0,17.5,2.9,23.6,8.7c6.4,6.3,9.6,15.3,9.6,27v61.1H860.9z"/>
		<path class="st0" d="M978,517.8c-8.5,9.1-19,13.6-31.5,13.6c-12.1,0-21.9-3.7-29.4-11.1c-8.8-8.5-13.2-21.2-13.2-37.9
			c0-16.7,4.4-29.4,13.2-37.9c7.5-7.3,17.3-10.9,29.4-10.9c12.6,0,23.1,4.5,31.5,13.4l-13.2,12.8c-5.5-6-11.6-9-18.3-9
			c-7.5,0-13.4,2.8-17.7,8.5c-3.8,4.8-5.7,12.5-5.7,23.2c0,10.8,1.9,18.6,5.7,23.4c4.3,5.7,10.2,8.5,17.7,8.5c6.7,0,12.8-3,18.3-9
			L978,517.8z"/>
		<path class="st0" d="M1009.7,491c0.5,7.4,2.8,13.2,7,17.3c4.3,4.4,10,6.6,17.2,6.6c9,0,16.8-3.3,23.2-9.8l12.3,11.5
			c-9.8,9.9-21.7,14.9-35.8,14.9c-12.9,0-23.1-3.6-30.4-10.9c-8.4-8.3-12.6-21-12.6-38.1c0-15.2,3.7-27.2,11.1-36
			c7.3-8.5,17.1-12.8,29.4-12.8c12.7,0,22.6,4.3,29.8,12.8c7.2,8.3,10.7,19.4,10.7,33.2v8.7H1025v-13.6h27.7
			c-0.3-4.9-1.1-9.2-2.6-13c-3.4-8-9.7-12.1-19-12.1c-9.3,0-15.6,4-19,12.1c-1.3,3-2,6.3-2.3,9.8V491z"/>
	</g>
</g>
</svg>
