<?xml version="1.0" encoding="utf-8"?>
<!-- Generator: Adobe Illustrator 22.0.0, SVG Export Plug-In . SVG Version: 6.00 Build 0)  -->
<svg version="1.1" id="Layer_1" xmlns="http://www.w3.org/2000/svg" xmlns:xlink="http://www.w3.org/1999/xlink" x="0px" y="0px"
	 viewBox="0 0 507.3 455.9" style="enable-background:new 0 0 507.3 455.9;" xml:space="preserve">
<style type="text/css">
	.st0{clip-path:url(#SVGID_2_);}
	.st1{clip-path:url(#SVGID_4_);fill-rule:evenodd;clip-rule:evenodd;fill:#FAB41F;}
	.st2{clip-path:url(#SVGID_4_);fill-rule:evenodd;clip-rule:evenodd;fill:#818181;}
	.st3{clip-path:url(#SVGID_4_);fill-rule:evenodd;clip-rule:evenodd;fill:#989898;}
</style>
<g>
	<g>
		<defs>
			<rect id="SVGID_1_" x="17.3" y="21" width="474.6" height="413.8"/>
		</defs>
		<clipPath id="SVGID_2_">
			<use xlink:href="#SVGID_1_"  style="overflow:visible;"/>
		</clipPath>
		<g class="st0">
			<defs>
				<rect id="SVGID_3_" x="-30.9" y="-43.2" width="569.5" height="541.9"/>
			</defs>
			<clipPath id="SVGID_4_">
				<use xlink:href="#SVGID_3_"  style="overflow:visible;"/>
			</clipPath>
			<path class="st1" d="M17.3,292.9V370h17.5v-32.3h28.7V370H81v-77.1H63.6v29.6H34.8v-29.6H17.3z M106.9,314.1H89.5v56h17.4V314.1z
				 M98.2,289.7c-5.6,0-9.3,3.8-9.2,8.8c-0.1,4.8,3.5,8.7,9,8.7c5.7,0,9.4-3.9,9.4-8.7C107.3,293.5,103.8,289.7,98.2,289.7"/>
			<path class="st2" d="M114.9,370h17.3v-27.6c1.6,0.2,3.7,0.3,6,0.3c10.3,0,19.1-2.5,25.1-8.1c4.6-4.4,7.1-10.8,7.1-18.3
				c0-7.6-3.3-14-8.2-17.9c-5.2-4.1-12.8-6.2-23.6-6.2c-10.6,0-18.2,0.7-23.6,1.6V370z M132.2,306.2c1.3-0.3,3.7-0.7,7.2-0.7
				c8.7,0,13.6,4.2,13.6,11.3c0,7.9-5.7,12.6-15,12.6c-2.5,0-4.4-0.1-5.8-0.5V306.2z M219,337v19.5c0,5.4,0.2,10.5,0.8,13.6h-15.7
				l-1-5.6h-0.3c-3.7,4.5-9.4,6.9-16,6.9c-11.3,0-18.1-8.3-18.1-17.2c0-14.5,13-21.5,32.9-21.4v-0.8c0-3-1.6-7.2-10.2-7.2
				c-5.7,0-11.8,1.9-15.5,4.2l-3.2-11.2c3.9-2.2,11.6-4.9,21.7-4.9C213.1,312.8,219,323.8,219,337 M202.1,349.7v-6.1
				c-9.2-0.1-16.3,2.1-16.3,8.8c0,4.5,3,6.6,6.9,6.6c4.4,0,7.9-2.9,9-6.4C202,351.7,202.1,350.7,202.1,349.7 M226.3,370h17.4v-28.4
				c0-1.4,0.1-2.7,0.3-3.9c1.1-5.4,5.5-8.8,11.9-8.8c1.9,0,3.4,0.2,4.7,0.6v-16.5c-1.3-0.2-2.1-0.2-3.7-0.2
				c-5.4,0-12.2,3.4-15.1,11.6h-0.5l-0.6-10.3h-15c0.2,4.8,0.5,10.2,0.5,18.4V370z M268.1,303.5v10.5h-7.4v12.8h7.4v22.9
				c0,7.9,1.6,13.3,4.8,16.6c2.8,2.9,7.4,4.9,13,4.9c4.9,0,9-0.7,11.3-1.6l-0.1-13.2c-1.7,0.3-2.8,0.5-5.2,0.5
				c-5.3,0-6.9-3.1-6.9-9.8v-20.3h12.5v-12.8h-12.5v-15.2L268.1,303.5z M301.3,370h17.4v-32.3c0-1.6,0.2-3.2,0.7-4.3
				c1.1-3.2,4-6.5,8.8-6.5c6.3,0,8.8,4.9,8.8,12.1v31h17.4v-33.2c0-16.5-8.6-24-20-24c-9.3,0-15,5.4-17.3,8.9h-0.3l-0.8-7.7h-15.1
				c0.2,4.9,0.5,10.9,0.5,17.8V370z M411.3,347.6c0.2-1.3,0.6-3.9,0.6-6.9c0-13.9-6.9-27.9-25-27.9c-19.5,0-28.3,15.7-28.3,29.9
				c0,17.5,10.9,28.6,29.9,28.6c7.6,0,14.5-1.3,20.3-3.6l-2.3-11.8c-4.7,1.5-9.5,2.3-15.4,2.3c-8.1,0-15.2-3.4-15.8-10.6H411.3z
				 M375.1,335.7c0.5-4.7,3.4-11.3,10.8-11.3c8,0,9.8,7.1,9.8,11.3H375.1z M415.8,370h17.4v-28.4c0-1.4,0.1-2.7,0.3-3.9
				c1.1-5.4,5.5-8.8,11.9-8.8c1.9,0,3.4,0.2,4.7,0.6v-16.5c-1.3-0.2-2.1-0.2-3.7-0.2c-5.4,0-12.2,3.4-15.1,11.6h-0.5l-0.6-10.3h-15
				c0.2,4.8,0.5,10.2,0.5,18.4V370z M449.6,367.3l3.1-12.5c3.2,1.9,9.8,4.2,15,4.2c5.3,0,7.4-1.8,7.4-4.7c0-2.9-1.7-4.2-8.2-6.4
				c-11.6-3.9-16-10.2-15.9-16.7c0-10.5,8.9-18.4,22.8-18.4c6.5,0,12.4,1.5,15.8,3.2l-3.1,12c-2.5-1.4-7.3-3.2-12.1-3.2
				c-4.2,0-6.6,1.7-6.6,4.6c0,2.6,2.2,4,9,6.4c10.6,3.7,15.1,9,15.2,17.3c0,10.4-8.2,18.2-24.3,18.2
				C460.4,371.3,453.9,369.6,449.6,367.3"/>
			<path class="st3" d="M119.1,427.2c-2.2,0-4.2-0.4-6-1.1c-1.8-0.7-3.4-1.8-4.6-3.2c-1.3-1.4-2.3-3.1-3-5.1c-0.7-2-1.1-4.4-1.1-7
				c0-2.6,0.4-4.9,1.2-7c0.8-2,1.9-3.7,3.2-5.1c1.4-1.4,2.9-2.4,4.7-3.1c1.8-0.7,3.7-1.1,5.8-1.1c1.3,0,2.5,0.1,3.5,0.3
				c1,0.2,1.9,0.4,2.7,0.6c0.8,0.2,1.4,0.5,1.9,0.7c0.5,0.2,0.8,0.4,1,0.5l-1.3,3.6c-0.3-0.2-0.7-0.4-1.2-0.6
				c-0.5-0.2-1.1-0.4-1.7-0.6c-0.6-0.2-1.4-0.4-2.1-0.5c-0.8-0.1-1.5-0.2-2.3-0.2c-1.7,0-3.1,0.3-4.5,0.9c-1.3,0.6-2.5,1.4-3.4,2.5
				c-0.9,1.1-1.6,2.4-2.1,3.9c-0.5,1.6-0.7,3.3-0.7,5.2c0,1.9,0.2,3.6,0.7,5.1c0.4,1.5,1.1,2.9,2,3.9c0.9,1.1,2,2,3.3,2.5
				c1.3,0.6,2.8,0.9,4.6,0.9c2,0,3.7-0.2,5-0.6c1.3-0.4,2.3-0.8,3-1.1l1.1,3.6c-0.2,0.2-0.6,0.3-1.1,0.6c-0.5,0.2-1.2,0.4-2,0.7
				c-0.8,0.2-1.8,0.4-2.8,0.5C121.5,427.1,120.3,427.2,119.1,427.2 M141.3,423.5c1,0,1.9,0,2.6-0.1c0.8,0,1.4-0.1,1.9-0.2v-7
				c-0.3-0.1-0.8-0.3-1.5-0.4c-0.7-0.1-1.5-0.1-2.5-0.1c-0.6,0-1.3,0-2,0.1c-0.7,0.1-1.4,0.3-1.9,0.6c-0.6,0.3-1.1,0.7-1.5,1.2
				c-0.4,0.5-0.6,1.2-0.6,2c0,1.5,0.5,2.5,1.4,3.1C138.3,423.2,139.6,423.5,141.3,423.5 M140.9,402.5c1.7,0,3.1,0.2,4.3,0.7
				c1.2,0.4,2.1,1.1,2.8,1.9c0.7,0.8,1.2,1.7,1.5,2.8c0.3,1.1,0.5,2.3,0.5,3.6v14.7c-0.4,0.1-0.9,0.1-1.5,0.2
				c-0.6,0.1-1.4,0.2-2.2,0.3c-0.8,0.1-1.7,0.2-2.6,0.3c-1,0.1-1.9,0.1-2.8,0.1c-1.3,0-2.5-0.1-3.7-0.4c-1.1-0.3-2.1-0.7-2.9-1.3
				c-0.8-0.6-1.4-1.4-1.9-2.3c-0.4-1-0.7-2.1-0.7-3.5c0-1.3,0.3-2.4,0.8-3.3c0.5-0.9,1.2-1.7,2.1-2.2c0.9-0.6,2-1,3.2-1.3
				c1.2-0.3,2.5-0.4,3.8-0.4c0.4,0,0.9,0,1.3,0.1c0.4,0,0.9,0.1,1.3,0.2c0.4,0.1,0.8,0.1,1.1,0.2c0.3,0.1,0.5,0.1,0.6,0.1v-1.2
				c0-0.7-0.1-1.4-0.2-2.1c-0.1-0.7-0.4-1.3-0.8-1.8c-0.4-0.5-0.9-0.9-1.6-1.3c-0.7-0.3-1.6-0.5-2.6-0.5c-1.4,0-2.6,0.1-3.6,0.3
				c-1,0.2-1.8,0.4-2.3,0.6l-0.5-3.5c0.5-0.2,1.4-0.5,2.7-0.7C138,402.6,139.4,402.5,140.9,402.5 M173.1,414.8c0-2.7-0.7-4.8-2-6.3
				c-1.4-1.5-3.2-2.2-5.4-2.2c-1.3,0-2.2,0-3,0.1c-0.7,0.1-1.3,0.2-1.7,0.3v14.8c0.5,0.4,1.2,0.8,2.2,1.2c1,0.4,2,0.6,3.2,0.6
				c1.2,0,2.2-0.2,3.1-0.7c0.9-0.4,1.6-1,2.1-1.8c0.5-0.8,0.9-1.7,1.2-2.7C173,417.1,173.1,416,173.1,414.8 M177.5,414.8
				c0,1.8-0.2,3.4-0.7,4.9c-0.5,1.5-1.2,2.8-2.1,3.9c-0.9,1.1-2,1.9-3.3,2.5c-1.3,0.6-2.8,0.9-4.5,0.9c-1.4,0-2.5-0.2-3.6-0.5
				c-1-0.4-1.8-0.7-2.3-1v9.4h-4.2v-31.1c1-0.2,2.2-0.5,3.7-0.8c1.5-0.3,3.2-0.4,5.2-0.4c1.8,0,3.4,0.3,4.9,0.9
				c1.4,0.6,2.7,1.4,3.7,2.4c1,1,1.8,2.3,2.4,3.9C177.2,411.2,177.5,412.9,177.5,414.8 M187.6,426.5h-4.2v-23.5h4.2V426.5z
				 M185.5,398.8c-0.8,0-1.4-0.2-1.9-0.7c-0.5-0.5-0.8-1.2-0.8-2c0-0.8,0.3-1.5,0.8-2c0.5-0.5,1.2-0.8,1.9-0.8
				c0.8,0,1.4,0.3,1.9,0.8c0.5,0.5,0.8,1.2,0.8,2c0,0.8-0.3,1.5-0.8,2C186.9,398.6,186.2,398.8,185.5,398.8 M198.8,403.1h8.9v3.5
				h-8.9v10.8c0,1.2,0.1,2.1,0.3,2.9c0.2,0.8,0.4,1.4,0.8,1.8c0.4,0.4,0.8,0.7,1.4,0.9c0.5,0.2,1.2,0.3,1.9,0.3c1.3,0,2.3-0.1,3-0.4
				c0.8-0.3,1.3-0.5,1.6-0.6l0.8,3.5c-0.4,0.2-1.2,0.5-2.2,0.8c-1.1,0.3-2.3,0.5-3.6,0.5c-1.6,0-2.9-0.2-3.9-0.6
				c-1-0.4-1.9-1-2.5-1.8c-0.6-0.8-1.1-1.8-1.3-3c-0.3-1.2-0.4-2.6-0.4-4.1v-20.9l4.2-0.7V403.1z M220.9,423.5c1,0,1.9,0,2.6-0.1
				c0.8,0,1.4-0.1,1.9-0.2v-7c-0.3-0.1-0.8-0.3-1.5-0.4c-0.7-0.1-1.5-0.1-2.5-0.1c-0.6,0-1.3,0-2,0.1c-0.7,0.1-1.4,0.3-1.9,0.6
				c-0.6,0.3-1.1,0.7-1.5,1.2c-0.4,0.5-0.6,1.2-0.6,2c0,1.5,0.5,2.5,1.4,3.1C217.9,423.2,219.2,423.5,220.9,423.5 M220.5,402.5
				c1.7,0,3.1,0.2,4.3,0.7c1.2,0.4,2.1,1.1,2.8,1.9c0.7,0.8,1.2,1.7,1.5,2.8c0.3,1.1,0.4,2.3,0.4,3.6v14.7c-0.4,0.1-0.9,0.1-1.5,0.2
				c-0.6,0.1-1.4,0.2-2.2,0.3c-0.8,0.1-1.7,0.2-2.6,0.3c-0.9,0.1-1.9,0.1-2.8,0.1c-1.3,0-2.5-0.1-3.7-0.4c-1.1-0.3-2.1-0.7-2.9-1.3
				c-0.8-0.6-1.4-1.4-1.9-2.3c-0.4-1-0.7-2.1-0.7-3.5c0-1.3,0.3-2.4,0.8-3.3c0.5-0.9,1.2-1.7,2.1-2.2c0.9-0.6,2-1,3.2-1.3
				c1.2-0.3,2.5-0.4,3.8-0.4c0.4,0,0.9,0,1.3,0.1c0.5,0,0.9,0.1,1.3,0.2c0.4,0.1,0.8,0.1,1.1,0.2c0.3,0.1,0.5,0.1,0.6,0.1v-1.2
				c0-0.7-0.1-1.4-0.2-2.1c-0.2-0.7-0.4-1.3-0.8-1.8c-0.4-0.5-0.9-0.9-1.6-1.3c-0.7-0.3-1.6-0.5-2.6-0.5c-1.4,0-2.6,0.1-3.6,0.3
				c-1,0.2-1.8,0.4-2.3,0.6l-0.5-3.5c0.5-0.2,1.4-0.5,2.7-0.7C217.7,402.6,219.1,402.5,220.5,402.5 M243.5,426.9
				c-2.6-0.1-4.4-0.6-5.5-1.7c-1.1-1-1.6-2.7-1.6-4.9v-28.1l4.2-0.7v28.2c0,0.7,0.1,1.3,0.2,1.7c0.1,0.5,0.3,0.8,0.6,1.1
				c0.3,0.3,0.6,0.5,1.1,0.6c0.4,0.1,1,0.2,1.7,0.3L243.5,426.9z M257.7,418.2c0-1.2,0.2-2.2,0.5-3.1c0.4-0.9,0.9-1.7,1.5-2.5
				c0.6-0.7,1.3-1.4,2.1-1.9c0.8-0.6,1.6-1,2.5-1.5c-2.2-2.2-3.3-4.5-3.3-6.9c0-1.2,0.2-2.3,0.6-3.2c0.4-1,1-1.8,1.7-2.4
				c0.7-0.7,1.5-1.2,2.5-1.5c1-0.4,2.1-0.5,3.2-0.5c1.2,0,2.3,0.2,3.2,0.5c0.9,0.4,1.7,0.8,2.4,1.4c0.6,0.6,1.1,1.3,1.5,2.2
				c0.3,0.8,0.5,1.7,0.5,2.7c0,1.1-0.2,2-0.5,2.8c-0.3,0.8-0.8,1.6-1.4,2.3c-0.6,0.7-1.3,1.3-2,1.9c-0.8,0.6-1.6,1.1-2.4,1.5
				l7.3,7.4c1-1.9,1.7-4,2-6.3l3.5,0.5c-0.1,1.2-0.4,2.6-0.9,4c-0.5,1.5-1.2,2.9-2.1,4.4c1.1,1.1,2,2.3,2.9,3.4
				c0.9,1.1,1.6,2.2,2.2,3.2h-4.4c-0.4-0.6-0.8-1.2-1.3-1.8c-0.5-0.6-1.1-1.3-1.6-1.9c-1.2,1.2-2.7,2.2-4.3,3
				c-1.6,0.8-3.5,1.2-5.6,1.2c-2,0-3.6-0.3-4.9-0.8c-1.3-0.6-2.3-1.3-3.1-2.1c-0.8-0.9-1.4-1.8-1.7-2.8
				C257.9,420.1,257.7,419.1,257.7,418.2 M261.9,418.1c0,0.5,0.1,1.1,0.3,1.8c0.2,0.6,0.6,1.2,1,1.7c0.5,0.5,1.1,1,1.9,1.3
				c0.8,0.4,1.7,0.5,2.9,0.5c1.5,0,2.8-0.3,4.1-0.8c1.2-0.5,2.3-1.3,3.3-2.3l-8.8-8.9c-0.5,0.3-1.1,0.6-1.6,0.9
				c-0.6,0.4-1.1,0.8-1.5,1.3c-0.5,0.5-0.8,1.2-1.1,1.9C262,416.3,261.9,417.1,261.9,418.1 M272.9,401.5c0-1-0.3-1.9-1-2.6
				c-0.7-0.7-1.6-1.1-2.8-1.1c-1.3,0-2.3,0.4-3,1.2c-0.7,0.8-1.1,1.8-1.1,3c0,2,1,3.9,3.1,5.7c0.7-0.3,1.3-0.7,1.9-1.1
				c0.6-0.4,1.1-0.8,1.5-1.4c0.4-0.5,0.8-1.1,1-1.7C272.7,403,272.9,402.3,272.9,401.5 M317.1,405.3c-1.3,4-2.5,7.8-3.8,11.2
				c-1.3,3.4-2.6,6.8-3.9,10H305c-1.6-4.6-3-9.5-4.2-14.6c-1.2-5.1-2.3-10.7-3.4-16.7h4.6c0.4,2.3,0.9,4.7,1.3,7
				c0.5,2.3,0.9,4.6,1.4,6.8c0.5,2.2,1,4.3,1.5,6.3c0.5,2,1,3.9,1.5,5.6c1.2-3.2,2.5-6.6,3.8-10.4c1.4-3.8,2.6-7.7,3.8-11.7h3.8
				c1.2,4,2.4,7.9,3.8,11.7c1.4,3.8,2.7,7.2,3.9,10.4c0.5-1.7,1-3.5,1.4-5.5c0.5-2,1-4.1,1.4-6.3c0.5-2.2,0.9-4.5,1.4-6.9
				c0.4-2.4,0.9-4.7,1.3-7.1h4.5c-1.1,6-2.2,11.6-3.4,16.7c-1.2,5.1-2.6,10-4.2,14.6h-4.4c-1.3-3.2-2.6-6.6-3.9-10
				C319.6,413.1,318.3,409.3,317.1,405.3 M362.3,414.8c0,1.9-0.3,3.5-0.8,5c-0.5,1.5-1.3,2.8-2.3,3.9c-1,1.1-2.1,1.9-3.5,2.5
				c-1.4,0.6-2.8,0.9-4.4,0.9c-1.6,0-3.1-0.3-4.4-0.9c-1.4-0.6-2.5-1.4-3.5-2.5c-1-1.1-1.7-2.4-2.3-3.9c-0.5-1.5-0.8-3.2-0.8-5
				c0-1.8,0.3-3.5,0.8-5c0.5-1.5,1.3-2.8,2.3-3.9c1-1.1,2.2-1.9,3.5-2.5c1.4-0.6,2.8-0.9,4.4-0.9c1.6,0,3.1,0.3,4.4,0.9
				c1.4,0.6,2.5,1.4,3.5,2.5c1,1.1,1.7,2.4,2.3,3.9C362,411.3,362.3,412.9,362.3,414.8 M357.9,414.8c0-2.6-0.6-4.7-1.8-6.3
				c-1.2-1.5-2.8-2.3-4.9-2.3c-2,0-3.7,0.8-4.8,2.3c-1.2,1.6-1.8,3.7-1.8,6.3c0,2.6,0.6,4.7,1.8,6.3c1.2,1.5,2.8,2.3,4.8,2.3
				c2.1,0,3.7-0.8,4.9-2.3C357.3,419.5,357.9,417.4,357.9,414.8 M376.9,402.6c0.4,0,0.8,0,1.2,0.1c0.5,0,0.9,0.1,1.4,0.2
				c0.5,0.1,0.9,0.2,1.2,0.2c0.4,0.1,0.7,0.1,0.8,0.2l-0.7,3.7c-0.3-0.1-0.9-0.3-1.6-0.4c-0.8-0.2-1.8-0.2-3-0.2
				c-0.8,0-1.5,0.1-2.3,0.2c-0.8,0.2-1.3,0.3-1.5,0.3v19.7h-4.2V404c1-0.4,2.2-0.7,3.7-1C373.4,402.7,375,402.6,376.9,402.6
				 M394.1,413.6c0.9,0.7,1.9,1.5,2.9,2.6c1,1,2,2.1,3,3.3c1,1.2,1.9,2.4,2.8,3.6c0.9,1.2,1.6,2.4,2.2,3.4H400
				c-0.6-1.1-1.4-2.1-2.2-3.2c-0.8-1.1-1.7-2.2-2.6-3.2c-0.9-1-1.8-1.9-2.8-2.8c-0.9-0.8-1.8-1.5-2.7-2.1v11.3h-4.2v-34.3l4.2-0.7
				v21.4c0.7-0.7,1.5-1.5,2.4-2.4c0.9-0.9,1.7-1.8,2.6-2.7c0.8-0.9,1.6-1.8,2.4-2.6c0.7-0.8,1.4-1.6,1.9-2.2h4.9
				c-0.7,0.7-1.5,1.6-2.3,2.5c-0.8,0.9-1.7,1.8-2.5,2.7c-0.9,0.9-1.8,1.8-2.6,2.8C395.7,411.9,394.9,412.8,394.1,413.6"/>
			<path class="st1" d="M161.1,49.3c10.7-2.6,21.4,4,23.9,14.7c2.6,10.7-4,21.4-14.7,23.9c-10.7,2.6-21.4-4-23.9-14.7
				C143.9,62.6,150.4,51.9,161.1,49.3 M236.9,207.5L204,172.3c12.1-1.5,20.4-4.7,20.4-8.4c0-0.7-0.3-1.3-0.8-2l12.4-2.6l2.7,19
				l4.1,28.4C240.7,207,238.8,207.2,236.9,207.5 M283.7,149.4l25.7-5.4c3.7,1,8.3,1.8,13.7,2.2l-43.4,60.5c-1.4-0.1-2.8-0.3-4.2-0.4
				l3.8-26.7L283.7,149.4z M260.2,205.9l-2.6,0V175h2.6V205.9z M275.1,101h-16.8c-5.6,0-11.2,0.6-16.8,0c-4-0.4-13.8,0.4-11.5,16.6
				l5.2,36.4l-18.7,4c-4.5-1.5-10.8-2.6-17.9-3.2l-1.5-16c-1-10.7-2.2-24-3.8-41.1c-0.6-6.3-2.9-13-11.6-10.9
				c-3.8,0.9-7.5,1.8-11.3,2.7c-3.8,0.9-7.4,2.2-11.3,2.7c-2.7,0.4-9.2,2.5-5,13c6.5,16.3,11.5,29.1,15.6,39.2l4.2,10.6
				c-13.5,1.4-23.1,4.8-23.1,8.7c0,5.2,16.5,9.4,36.8,9.4c2.5,0,5-0.1,7.3-0.2l22.4,39.3c-4.2,1.9-6.5,4-6.5,6.4
				c0,7.1,22.6,12.9,50.4,12.9c27.8,0,50.4-5.8,50.4-12.9c0-3-4.1-5.8-11-8.1l29.8-64.2h0.8c16.4,0,29.6-3.4,29.6-7.6
				c0-2.9-6.3-5.4-15.5-6.7l4.6-12.6c3.7-10.1,8.3-22.7,14.2-38.8c2.2-5.9,3-13-5.8-14.8c-3.8-0.8-7.5-1.6-11.3-2.4
				c-3.8-0.8-7.6-1.2-11.3-2.4c-2.6-0.8-9.4-1.7-10.1,9.6c-1.2,17.5-2.1,31.2-2.8,42.1l-1.3,18.8c-11.6,1-19.9,3.8-19.9,7.2
				c0,0.3,0.1,0.6,0.2,0.8l-17.3,3.7l3.3-23.2C289.1,111.2,288.1,101,275.1,101 M185.4,154.5l-3.6-15.2l1.7-0.4l3.7,15.6
				L185.4,154.5z M332.2,131.3l3.8-17.9l1.7,0.4l-3.7,17.5L332.2,131.3z M356,23.3c10.7,2.3,17.6,12.8,15.3,23.5
				c-2.3,10.7-12.8,17.6-23.5,15.3c-10.7-2.3-17.6-12.8-15.3-23.5C334.7,27.9,345.3,21,356,23.3 M258.9,40.9
				c15.9,0,28.8,12.9,28.8,28.8c0,15.9-12.9,28.8-28.8,28.8c-15.9,0-28.8-12.9-28.8-28.8C230.1,53.8,243,40.9,258.9,40.9"/>
			<path class="st1" d="M169.4,136.6c-39.7,6.1-67.3,20.5-71,40.4c-6.3,33.8,58.5,70.8,144.9,82.5c86.3,11.7,161.4-6.1,167.7-40
				c3.7-19.9-17.3-40.9-52.8-57.3c23.2,13.2,36.2,29,33.4,44.2c-5.6,29.9-70.5,45.9-145,35.8c-74.5-10.1-130.4-42.6-124.8-72.5
				C124.4,154.6,142.5,143,169.4,136.6"/>
		</g>
	</g>
</g>
</svg>
