<?xml version="1.0" encoding="utf-8"?>
<!-- Generator: Adobe Illustrator 22.0.0, SVG Export Plug-In . SVG Version: 6.00 Build 0)  -->
<svg version="1.1" id="Layer_1" xmlns="http://www.w3.org/2000/svg" xmlns:xlink="http://www.w3.org/1999/xlink" x="0px" y="0px"
	 viewBox="0 0 595.3 137.9" style="enable-background:new 0 0 595.3 137.9;" xml:space="preserve">
<style type="text/css">
	.st0{fill:#1E1E1E;}
	.st1{font-family:'ArialRoundedMTBold';}
	.st2{font-size:16.3573px;}
	.st3{font-family:'BerlinSansFB-Reg';}
	.st4{font-size:105.2125px;}
	.st5{fill:#000001;}
	.st6{fill:#141415;}
	.st7{fill:#63CCF5;}
	.st8{fill:#00ADEE;}
	.st9{fill:#F072AB;}
	.st10{fill:#EB008B;}
	.st11{fill:#FAF188;}
	.st12{fill:#F5EA00;}
	.st13{fill:#1B1B1B;}
</style>
<text transform="matrix(1 0 0 1 487.1709 114.6973)" class="st0 st1 st2">F</text>
<g>
	<path class="st0" d="M498,113.6v-9.5c0-0.4,0.1-0.8,0.3-1s0.5-0.3,0.8-0.3s0.6,0.1,0.8,0.3c0.2,0.2,0.3,0.6,0.3,1v9.5
		c0,0.4-0.1,0.8-0.3,1s-0.5,0.3-0.8,0.3s-0.6-0.1-0.8-0.3C498.1,114.3,498,114,498,113.6z"/>
	<path class="st0" d="M508.5,111h-4.3c0,0.5,0.1,0.9,0.3,1.3c0.2,0.4,0.5,0.7,0.8,0.9c0.3,0.2,0.7,0.3,1.1,0.3c0.3,0,0.5,0,0.7-0.1
		s0.4-0.2,0.6-0.3c0.2-0.1,0.4-0.3,0.6-0.4s0.4-0.4,0.7-0.6c0.1-0.1,0.3-0.1,0.5-0.1s0.4,0.1,0.5,0.2s0.2,0.3,0.2,0.5
		s-0.1,0.4-0.2,0.7c-0.2,0.3-0.4,0.5-0.7,0.8c-0.3,0.2-0.7,0.4-1.2,0.6s-1,0.2-1.6,0.2c-1.4,0-2.5-0.4-3.3-1.2
		c-0.8-0.8-1.2-1.9-1.2-3.3c0-0.6,0.1-1.2,0.3-1.8c0.2-0.6,0.5-1,0.8-1.4s0.8-0.7,1.4-0.9c0.5-0.2,1.1-0.3,1.8-0.3
		c0.9,0,1.6,0.2,2.2,0.5c0.6,0.4,1.1,0.8,1.4,1.4s0.5,1.2,0.5,1.7s-0.2,0.9-0.5,1.1C509.5,110.9,509.1,111,508.5,111z M504.2,109.8
		h4c-0.1-0.7-0.3-1.3-0.6-1.7c-0.3-0.4-0.8-0.6-1.4-0.6c-0.5,0-1,0.2-1.3,0.6C504.5,108.5,504.3,109,504.2,109.8z"/>
	<path class="st0" d="M518.2,111h-4.3c0,0.5,0.1,0.9,0.3,1.3s0.5,0.7,0.8,0.9c0.3,0.2,0.7,0.3,1.1,0.3c0.3,0,0.5,0,0.7-0.1
		s0.4-0.2,0.6-0.3c0.2-0.1,0.4-0.3,0.6-0.4c0.2-0.1,0.4-0.4,0.7-0.6c0.1-0.1,0.3-0.1,0.5-0.1s0.4,0.1,0.5,0.2s0.2,0.3,0.2,0.5
		s-0.1,0.4-0.2,0.7c-0.2,0.3-0.4,0.5-0.7,0.8c-0.3,0.2-0.7,0.4-1.2,0.6s-1,0.2-1.6,0.2c-1.4,0-2.5-0.4-3.3-1.2
		c-0.8-0.8-1.2-1.9-1.2-3.3c0-0.6,0.1-1.2,0.3-1.8c0.2-0.6,0.5-1,0.8-1.4s0.8-0.7,1.4-0.9c0.5-0.2,1.1-0.3,1.8-0.3
		c0.9,0,1.6,0.2,2.2,0.5c0.6,0.4,1.1,0.8,1.4,1.4c0.3,0.6,0.5,1.2,0.5,1.7s-0.2,0.9-0.5,1.1C519.2,110.9,518.8,111,518.2,111z
		 M513.9,109.8h4c-0.1-0.7-0.3-1.3-0.6-1.7c-0.3-0.4-0.8-0.6-1.4-0.6c-0.5,0-1,0.2-1.3,0.6C514.2,108.5,514,109,513.9,109.8z"/>
	<path class="st0" d="M522,106.2h0.2v-1.3c0-0.4,0-0.6,0-0.8s0.1-0.4,0.2-0.5c0.1-0.1,0.2-0.3,0.4-0.4s0.3-0.1,0.5-0.1
		c0.3,0,0.5,0.1,0.8,0.3c0.1,0.1,0.2,0.3,0.3,0.5s0.1,0.5,0.1,0.9v1.5h0.8c0.3,0,0.5,0.1,0.7,0.2s0.2,0.3,0.2,0.6
		c0,0.3-0.1,0.5-0.3,0.6s-0.6,0.2-1,0.2h-0.4v4c0,0.3,0,0.6,0,0.8c0,0.2,0.1,0.3,0.2,0.4c0.1,0.1,0.3,0.2,0.5,0.2
		c0.1,0,0.3,0,0.5-0.1c0.2,0,0.4-0.1,0.5-0.1c0.2,0,0.3,0.1,0.5,0.2c0.1,0.1,0.2,0.3,0.2,0.5c0,0.4-0.2,0.6-0.6,0.8
		c-0.4,0.2-0.9,0.3-1.7,0.3c-0.7,0-1.2-0.1-1.5-0.3c-0.4-0.2-0.6-0.5-0.7-1s-0.2-0.9-0.2-1.6v-4.2h-0.3c-0.3,0-0.6-0.1-0.7-0.2
		c-0.2-0.1-0.2-0.3-0.2-0.6s0.1-0.4,0.3-0.6S521.6,106.2,522,106.2z"/>
	<path class="st0" d="M544.2,112.9l-1.9-7l-1.9,7c-0.1,0.5-0.3,0.9-0.4,1.1c-0.1,0.2-0.2,0.4-0.5,0.6c-0.2,0.2-0.5,0.3-0.9,0.3
		c-0.3,0-0.5-0.1-0.7-0.2s-0.3-0.3-0.5-0.5s-0.2-0.4-0.3-0.7c-0.1-0.3-0.1-0.5-0.2-0.8l-1.9-7.9c-0.1-0.5-0.2-0.8-0.2-1
		c0-0.3,0.1-0.6,0.3-0.8s0.5-0.3,0.8-0.3c0.4,0,0.7,0.1,0.9,0.4c0.1,0.3,0.3,0.7,0.4,1.2l1.5,6.8l1.7-6.4c0.1-0.5,0.2-0.9,0.3-1.1
		c0.1-0.3,0.3-0.5,0.5-0.7s0.5-0.3,0.9-0.3s0.7,0.1,0.9,0.3c0.2,0.2,0.4,0.4,0.5,0.6s0.2,0.6,0.3,1.1l1.7,6.4l1.5-6.8
		c0.1-0.4,0.1-0.6,0.2-0.8c0.1-0.2,0.2-0.4,0.3-0.5s0.4-0.2,0.7-0.2s0.6,0.1,0.8,0.3c0.2,0.2,0.3,0.5,0.3,0.8c0,0.2-0.1,0.6-0.2,1
		l-1.9,7.9c-0.1,0.5-0.2,0.9-0.3,1.2s-0.2,0.5-0.4,0.7s-0.5,0.3-0.9,0.3s-0.7-0.1-0.9-0.3c-0.2-0.2-0.4-0.4-0.5-0.6
		C544.5,113.8,544.4,113.4,544.2,112.9z"/>
</g>
<text transform="matrix(1 0 0 1 549.8018 114.6973)" class="st0 st1 st2">r</text>
<text transform="matrix(1 0 0 1 556.5596 114.6973)" class="st0 st1 st2">a</text>
<text transform="matrix(1 0 0 1 566.0635 114.6973)" class="st0 st1 st2">p</text>
<g>
	<path class="st0" d="M189.1,48.4c0,0.1-0.1,0.4-0.2,0.9c-1.3,7.8-2,14.6-2,20.3c0,0.3,0.4,8,1.3,23.1l0.1,0.7c0,1-0.4,1.5-1.4,1.5
		c-0.9,0-2.4,0.1-4.3,0.3c-1.9,0.2-3.3,0.3-4.2,0.3c-0.7,0-1.1-1.2-1.5-3.6c-0.3-2.4-0.7-3.6-1-3.6c-0.2,0-1.1,0.7-2.8,2
		c-2,1.6-3.9,2.9-5.7,3.8c-2.7,1.4-5.4,2.1-8.1,2.1c-6.6,0-12.2-2.7-16.8-8c-4.3-5.1-6.5-11-6.5-17.7c0-7.6,2.2-13.9,6.5-18.9
		c4.6-5.2,10.5-7.8,18-7.8c5.2,0,9.8,1.8,13.7,5.4c0.6,0.7,1.5,1.7,2.7,3c0.1,0.1,0.2,0.2,0.3,0.2c0.2,0,0.5-1.1,0.9-3.2
		c0.4-2.2,0.9-3.2,1.4-3.2c0.9,0,2.7,0.3,5.2,0.8C187.7,47.4,189.1,47.9,189.1,48.4z M176,69.9c0-4.2-1.3-7.8-3.8-10.8
		c-2.6-3.3-6-4.9-10.1-4.9s-7.5,1.6-10.3,4.8c-2.6,3.1-4,6.7-4,10.9c0,4.1,1.3,7.7,4,10.8c2.7,3.2,6.2,4.8,10.3,4.8
		c4,0,7.4-1.6,10.1-4.9C174.8,77.5,176,73.9,176,69.9z"/>
	<path class="st0" d="M226.9,46.6c0,3.8-0.3,7.2-0.8,10.3c-0.1,0.8-0.4,1.2-1,1.2c-0.7,0-1.8-0.1-3.3-0.2c-1.5-0.2-2.6-0.2-3.3-0.2
		c-4.3,0-7.1,1.2-8.3,3.6c-0.7,1.5-1.1,4.5-1.1,9.2v5.7c0,1.9,0.1,4.8,0.2,8.7c0.2,3.9,0.2,6.8,0.2,8.7c0,0.9-0.4,1.4-1.2,1.4
		c-1.1,0-2.7,0-4.8-0.1c-2.2,0-3.8-0.1-4.8-0.1c-0.8,0-1.2-0.4-1.2-1.3c0-2.8,0-7,0.1-12.5c0.1-5.6,0.1-9.8,0.1-12.6
		c0-8.5-0.8-15.3-2.4-20.4c-0.1-0.3-0.1-0.5-0.1-0.6c0-0.4,0.2-0.7,0.7-0.9c1.3-0.1,3-0.3,5.3-0.6c3.7-0.7,5.4-1,5.1-1
		c0.5,0,0.9,1,1.1,3c0.2,2,0.5,3,0.9,3c0.1,0,0.2,0,0.3-0.1c1.4-0.9,2.8-1.8,4.2-2.7c1.5-0.9,3.1-1.6,4.7-2.1c1.3-0.4,3-0.6,5.1-0.6
		C225.6,45.6,226.9,45.9,226.9,46.6z"/>
	<path class="st0" d="M261.2,85.4c0,0.8-0.1,1.8-0.2,3.1c-0.2,1.6-0.3,2.7-0.3,3.1c0,0.6-0.1,1-0.2,1.1c-0.1,0.2-0.5,0.5-1,0.7
		c-2.8,1.3-7.2,2-13.3,2c-8,0-12-3.6-12-10.9c0-2.9,0.1-7.3,0.2-13.1c0.1-5.8,0.2-10.2,0.2-13.1c0-1.4-0.7-2.2-2.1-2.3
		c-1.3,0-2.5,0-3.8-0.1c-0.7-0.2-1.1-1.6-1.1-4.2c0-1,0.1-2,0.2-3.1c0.1-0.8,0.6-1.3,1.6-1.5c0.9,0,1.7,0,2.5-0.1
		c1.6-0.1,2.4-0.8,2.4-2.1c0-1.4,0-3.5-0.1-6.3s-0.1-4.9-0.1-6.3c0-2.5,0.5-3.8,1.4-3.8c0.3,0,3.5,0.5,9.7,1.6
		c0.8,0.1,1.2,0.5,1.2,1.1c0,1.5-0.1,3.8-0.3,6.8s-0.3,5.3-0.3,6.8c0,1,0.5,1.5,1.4,1.5h12.3c0.6,0,0.9,0.2,0.9,0.6
		c0,0.4-0.1,1.1-0.2,2s-0.2,1.6-0.2,2c0,0.5,0,1.3,0.1,2.4c0,1.1,0.1,1.8,0.1,2.4c0,0.7-0.5,1-1.4,1c-1.4,0-3.4-0.1-6.2-0.3
		s-4.8-0.3-6.2-0.3c-0.3,0-0.5,1-0.6,2.9c-0.2,2.4-0.3,5.8-0.3,10.2v7.7c0,2.9,0.3,5,0.8,6.2c0.8,1.8,2.5,2.7,5.1,2.7
		c1.1,0,2.6-0.2,4.7-0.7s3.6-0.7,4.6-0.7C261,84.5,261.2,84.8,261.2,85.4z"/>
	<path class="st0" d="M344.8,48.4c0,0.1-0.1,0.4-0.2,0.9c-1.3,7.8-2,14.6-2,20.3c0,0.3,0.4,8,1.3,23.1l0.1,0.7c0,1-0.4,1.5-1.4,1.5
		c-0.9,0-2.4,0.1-4.3,0.3c-1.9,0.2-3.3,0.3-4.2,0.3c-0.7,0-1.1-1.2-1.5-3.6c-0.3-2.4-0.7-3.6-1-3.6c-0.2,0-1.1,0.7-2.8,2
		c-2,1.6-3.9,2.9-5.7,3.8c-2.7,1.4-5.4,2.1-8.1,2.1c-6.6,0-12.2-2.7-16.8-8c-4.3-5.1-6.5-11-6.5-17.7c0-7.6,2.2-13.9,6.5-18.9
		c4.6-5.2,10.5-7.8,18-7.8c5.2,0,9.8,1.8,13.7,5.4c0.6,0.7,1.5,1.7,2.7,3c0.1,0.1,0.2,0.2,0.3,0.2c0.2,0,0.5-1.1,0.9-3.2
		s0.9-3.2,1.4-3.2c0.9,0,2.7,0.3,5.2,0.8C343.3,47.4,344.8,47.9,344.8,48.4z M331.7,69.9c0-4.2-1.3-7.8-3.8-10.8
		c-2.6-3.3-6-4.9-10.1-4.9s-7.5,1.6-10.3,4.8c-2.6,3.1-4,6.7-4,10.9c0,4.1,1.3,7.7,4,10.8c2.7,3.2,6.2,4.8,10.3,4.8
		c4,0,7.4-1.6,10.1-4.9C330.4,77.5,331.7,73.9,331.7,69.9z"/>
	<path class="st0" d="M381.7,85.4c0,0.8-0.1,1.8-0.2,3.1c-0.2,1.6-0.3,2.7-0.3,3.1c0,0.6-0.1,1-0.2,1.1c-0.1,0.2-0.5,0.5-1,0.7
		c-2.8,1.3-7.2,2-13.3,2c-8,0-12-3.6-12-10.9c0-2.9,0.1-7.3,0.2-13.1c0.1-5.8,0.2-10.2,0.2-13.1c0-1.4-0.7-2.2-2.1-2.3
		c-1.3,0-2.5,0-3.8-0.1c-0.7-0.2-1.1-1.6-1.1-4.2c0-1,0.1-2,0.2-3.1c0.1-0.8,0.7-1.3,1.6-1.5c0.9,0,1.7,0,2.5-0.1
		c1.6-0.1,2.4-0.8,2.4-2.1c0-1.4,0-3.5-0.1-6.3s-0.1-4.9-0.1-6.3c0-2.5,0.5-3.8,1.4-3.8c0.3,0,3.5,0.5,9.7,1.6
		c0.8,0.1,1.2,0.5,1.2,1.1c0,1.5-0.1,3.8-0.3,6.8c-0.2,3-0.3,5.3-0.3,6.8c0,1,0.5,1.5,1.4,1.5H380c0.6,0,0.9,0.2,0.9,0.6
		c0,0.4-0.1,1.1-0.2,2s-0.2,1.6-0.2,2c0,0.5,0,1.3,0.1,2.4c0,1.1,0.1,1.8,0.1,2.4c0,0.7-0.5,1-1.4,1c-1.4,0-3.4-0.1-6.2-0.3
		c-2.8-0.2-4.8-0.3-6.2-0.3c-0.3,0-0.5,1-0.6,2.9c-0.2,2.4-0.3,5.8-0.3,10.2v7.7c0,2.9,0.3,5,0.8,6.2c0.8,1.8,2.5,2.7,5.1,2.7
		c1.1,0,2.6-0.2,4.7-0.7s3.6-0.7,4.6-0.7C381.5,84.5,381.7,84.8,381.7,85.4z"/>
	<path class="st0" d="M417.7,85.4c0,0.8-0.1,1.8-0.2,3.1c-0.2,1.6-0.3,2.7-0.3,3.1c0,0.6-0.1,1-0.2,1.1c-0.1,0.2-0.5,0.5-1,0.7
		c-2.8,1.3-7.2,2-13.3,2c-8,0-12-3.6-12-10.9c0-2.9,0.1-7.3,0.2-13.1c0.1-5.8,0.2-10.2,0.2-13.1c0-1.4-0.7-2.2-2.1-2.3
		c-1.3,0-2.5,0-3.8-0.1c-0.7-0.2-1.1-1.6-1.1-4.2c0-1,0.1-2,0.2-3.1c0.1-0.8,0.7-1.3,1.6-1.5c0.9,0,1.7,0,2.5-0.1
		c1.6-0.1,2.4-0.8,2.4-2.1c0-1.4,0-3.5-0.1-6.3s-0.1-4.9-0.1-6.3c0-2.5,0.5-3.8,1.4-3.8c0.3,0,3.5,0.5,9.7,1.6
		c0.8,0.1,1.2,0.5,1.2,1.1c0,1.5-0.1,3.8-0.3,6.8c-0.2,3-0.3,5.3-0.3,6.8c0,1,0.5,1.5,1.4,1.5H416c0.6,0,0.9,0.2,0.9,0.6
		c0,0.4-0.1,1.1-0.2,2s-0.2,1.6-0.2,2c0,0.5,0,1.3,0.1,2.4c0,1.1,0.1,1.8,0.1,2.4c0,0.7-0.5,1-1.4,1c-1.4,0-3.4-0.1-6.2-0.3
		c-2.8-0.2-4.8-0.3-6.2-0.3c-0.3,0-0.5,1-0.6,2.9c-0.2,2.4-0.3,5.8-0.3,10.2v7.7c0,2.9,0.3,5,0.8,6.2c0.8,1.8,2.5,2.7,5.1,2.7
		c1.1,0,2.6-0.2,4.7-0.7s3.6-0.7,4.6-0.7C417.5,84.5,417.7,84.8,417.7,85.4z"/>
	<path class="st0" d="M475,48.4c0,0.1-0.1,0.4-0.2,0.9c-1.3,7.8-2,14.6-2,20.3c0,0.3,0.4,8,1.3,23.1l0.1,0.7c0,1-0.4,1.5-1.4,1.5
		s-2.4,0.1-4.3,0.3c-1.9,0.2-3.3,0.3-4.2,0.3c-0.7,0-1.1-1.2-1.5-3.6c-0.3-2.4-0.7-3.6-1-3.6c-0.2,0-1.1,0.7-2.8,2
		c-2,1.6-3.9,2.9-5.7,3.8c-2.7,1.4-5.4,2.1-8.1,2.1c-6.6,0-12.2-2.7-16.8-8c-4.3-5.1-6.5-11-6.5-17.7c0-7.6,2.2-13.9,6.5-18.9
		c4.6-5.2,10.5-7.8,18-7.8c5.2,0,9.8,1.8,13.7,5.4c0.6,0.7,1.5,1.7,2.7,3c0.1,0.1,0.2,0.2,0.3,0.2c0.2,0,0.5-1.1,0.9-3.2
		s0.9-3.2,1.4-3.2c0.9,0,2.7,0.3,5.2,0.8C473.6,47.4,475,47.9,475,48.4z M461.9,69.9c0-4.2-1.3-7.8-3.8-10.8
		c-2.6-3.3-6-4.9-10.1-4.9s-7.5,1.6-10.3,4.8c-2.6,3.1-4,6.7-4,10.9c0,4.1,1.3,7.7,4,10.8c2.7,3.2,6.2,4.8,10.3,4.8
		c4,0,7.4-1.6,10.1-4.9C460.6,77.5,461.9,73.9,461.9,69.9z"/>
	<path class="st0" d="M519.2,48.3c0,0.8-0.4,2.4-1.2,5s-1.3,3.9-1.6,3.9c-1.5-0.7-3.1-1.4-4.6-2.1c-1.6-0.7-3.3-1-5.1-1
		c-4.2,0-7.7,1.6-10.5,4.7c-2.8,3.1-4.2,6.8-4.2,11s1.4,7.8,4.2,10.8c2.9,3.2,6.4,4.7,10.5,4.7c2.3,0,4.6-0.6,6.8-1.7
		c2.2-1.1,3.2-1.7,2.9-1.7c0.4,0,0.9,1.4,1.5,4.3c0.5,2.6,0.8,4.4,0.8,5.4c0,1.1-2,2.1-6,3.1c-3.4,0.9-5.8,1.3-7.4,1.3
		c-7.1,0-13-2.6-17.9-7.9c-4.8-5.1-7.1-11.3-7.1-18.4c0-7.3,2.3-13.4,7-18.5c4.8-5.2,10.8-7.8,17.9-7.8c4.8,0,9.2,1.2,13.2,3.6
		C518.9,47.6,519.2,48,519.2,48.3z"/>
</g>
<g>
	<path class="st0" d="M562.6,89.8l-12.4-20.3l-7.6,7.2v11.1c0,2.7-0.7,4.8-2.1,6.2c-1.4,1.5-3.1,2.2-4.9,2.2c-2.2,0-3.9-0.7-5.1-2.2
		c-1.2-1.4-1.8-3.6-1.8-6.4V27.8c0-3.1,0.6-5.5,1.8-7.1s2.9-2.4,5.1-2.4c2.2,0,3.9,0.7,5.1,2.2c1.3,1.5,1.9,3.6,1.9,6.5v34
		l15.8-16.5c2-2.1,3.4-3.5,4.5-4.2c1-0.8,2.3-1.1,3.8-1.1c1.7,0,3.2,0.6,4.4,1.7c1.2,1.1,1.7,2.5,1.7,4.2c0,2.1-1.9,4.8-5.7,8.2
		l-7.4,6.8l14.4,22.6c1.1,1.7,1.8,3,2.3,3.8c0.5,0.9,0.7,1.7,0.7,2.5c0,2.2-0.6,4-1.8,5.3s-2.8,1.9-4.8,1.9c-1.7,0-3-0.5-4-1.4
		C565.4,93.9,564.1,92.2,562.6,89.8z"/>
</g>
<text transform="matrix(1 0 0 1 580.6963 94.8877)" class="st0 st3 st4"> </text>
<path class="st5" d="M57.6,120.5c-2.8-2-5.9-3.4-10.1-2.7C50.8,119.2,54.2,120,57.6,120.5"/>
<path class="st6" d="M27.7,108.5c-0.7-1.5-0.6-2.8,1.4-3.7c-4.6-2.8-8.5-5.6-11.7-8.4C17.7,101,21.9,104.9,27.7,108.5"/>
<path class="st7" d="M53.9,14.7c-1.7,0.2-2.9,1.4-3.8,2.2c13.2,0,26.1,2,38.6,6.9c0.6-0.1,1.6-0.7,0-2.5
	C75.5,15,64.3,13.4,53.9,14.7"/>
<path class="st7" d="M66.1,33.1c-7.3-3.2-12.7-6.9-16-11.2c29.1,1.6,47,8.3,58.3,17.9c-1,2.1-3.8,3.3-9.7,2.6
	C88.7,37.5,77.7,34.7,66.1,33.1"/>
<path class="st8" d="M66.1,33.1c-13.4-7-21.2-13.3-13-18.3l-13.3,3.7c-8.3,5.7-2.4,13.5,13.9,22.9c20.4,9.9,39,15,54.9,14.6
	c6.5-1.2,6.5-2.3,3.8-7.9l-3.9-8.3c-0.2,0.6-0.7,1-0.9,1.2C101.7,45.4,86.1,41.1,66.1,33.1"/>
<path class="st7" d="M39.1,30.7c-2.1-2.3-3.6-4.9-2.8-8c-3.1,0.3-5.9,1.2-8.5,4c-1,1.4-1.1,3.2-0.2,5.3
	C33.4,30.9,36.9,30.6,39.1,30.7"/>
<path class="st9" d="M112.6,66.4c-3.2,1.9-9.6,2.2-16.3,0.4c-9.6-4.6-21.7-8-35.5-10.6c-9.5-3.6-19-8.9-28.4-16.1
	c5.3-0.8,11.5-0.9,19.8,0.6C77.6,53.1,93.5,55.9,107.7,56C115.7,59.7,118,64.1,112.6,66.4"/>
<path class="st10" d="M37.9,44c-9.7-6.7-13.5-15.2-9.5-18c-3,2.1-6.2,5.2-9.7,10c-2.3,3.5-1.7,5.4-0.1,8.9
	c14.9,23,79.8,42,90.4,38.1c4.8-0.7,6.1-2.9,6.9-8.3c0.7-5.5,0.6-9.4-0.4-11.3C111.8,74.9,62.9,61.2,37.9,44"/>
<path class="st9" d="M27.4,54.2c-4.4-3.6-8.1-7.3-9.7-11.4c-7.2,2.8-6.9,7.9-3.2,14.1C21,54.5,25.1,53.7,27.4,54.2"/>
<path class="st11" d="M53.4,81.6c-10.9-3.5-22.1-9.2-30.1-16c6.9-1.4,14.4-1.2,22.3,0c24.4,11.3,44.7,18,59.9,17.9
	c6.3,3.8,7.5,6.7,3.4,8.6c-5.7,2.1-12.3,1.6-18.4,0.5C78.8,87.4,66.2,83.7,53.4,81.6"/>
<path class="st11" d="M10.4,69.4c3.2,3.9,6.9,7.1,13.1,11.8c-3.5,0.1-6.9,1.1-9.6,3.1C8,79.8,7.2,74.7,10.4,69.4"/>
<path class="st5" d="M71,111c13.5,2.1,21.8,2.4,23.6,0.4c-9,6.9-14.3,8.6-21,7.8c-15-1.4-37.6-7.6-54.3-21.2
	C13.1,93.1,10.1,86.4,9,77.9c3.6,5.5,8.5,10.9,17.2,16C36.4,100.3,51.6,106,71,111"/>
<path class="st5" d="M69.2,121.8c-12.7,2.1-33-1.1-48.4-18.6C39.8,117.2,54.8,121.2,69.2,121.8"/>
<path class="st12" d="M61.2,84.8c-27.7-11-48.4-21.1-48.8-37.9C7.5,59.4,7.6,66.2,11.5,71c20.7,22.2,62.6,33.4,85.5,34.4
	c5.8-0.4,10.4-5.7,14.2-15.5C109.1,96.3,82.4,93.3,61.2,84.8"/>
<path class="st13" d="M38.3,112.2l3.1-1.1l-12.2-6.3c-1.9,0.3-2.3,1.4-1.7,3c4.5,3.3,9.9,6.4,15.3,8.2L38.3,112.2z"/>
<path class="st8" d="M76.5,21.1c-1.8-0.7-4.7-3.4-1.2-3.5c-3.6-1.3-7.4-2-11.7-2.3c-7.9,1.5,0.1,8.6,15.9,14.7
	c7.2,2.8,14.1,4.1,19.9,3.1c2.4-0.8,2.4-2.2-0.6-4.8c-4.2-3.7-7.4-5.9-10-7c2,2.4,0.4,3-3.3,2.4C82.6,23.1,79.6,22.2,76.5,21.1"/>
<path class="st6" d="M39.4,90.3c16,7.8,33.8,12.5,53.1,14.7c0,0,7.6,6.7-1.6,7.7c-3.8,0.3-5.8,0.4-13.7-0.8
	c-7.5-4.4-17.9-7.5-32.1-9.1c-11.6-2.7-17.7-5.7-22-10.9C28,90.3,33.6,89.9,39.4,90.3"/>
<path class="st6" d="M71.7,119.1c-10.9-1.5-20-4-30.9-8.4l-3.3,1.2l4.7,3.9c1.7,0.7,3.4,1.4,5.3,2.1c4-0.5,7.2,0.8,10.1,2.7
	c4.4,0.8,7.6,1.1,10.6,1.2C72.1,122,72.9,121,71.7,119.1"/>
</svg>
