<?xml version="1.0" encoding="utf-8"?>
<!-- Generator: Adobe Illustrator 21.1.0, SVG Export Plug-In . SVG Version: 6.00 Build 0)  -->
<svg version="1.1" id="Layer_1" xmlns="http://www.w3.org/2000/svg" xmlns:xlink="http://www.w3.org/1999/xlink" x="0px" y="0px"
	 viewBox="0 0 34 10.6" style="enable-background:new 0 0 34 10.6;" xml:space="preserve">
<style type="text/css">
	.st0{fill:#FF5B35;}
</style>
<g>
	<g>
		<g>
			<path class="st0" d="M5.1,3.4c0,0,0.1-0.1,0.1-0.1c0.1-0.1,0.2-0.3,0.2-0.5C5.4,2.3,5,2,4.6,2l0,0C4.1,2,3.8,2.3,3.8,2.8
				c0,0.2,0.1,0.3,0.2,0.5C4,3.3,4,3.4,4,3.4c0.1,0.2,0.2,0.3,0.2,0.5v1.7C4.2,6,4.1,6,4,6.2c0,0-0.1,0.1-0.1,0.1
				C3.8,6.5,3.8,6.7,3.8,6.8c0,0.4,0.4,0.8,0.8,0.8h0c0.4,0,0.8-0.4,0.8-0.8c0-0.2-0.1-0.3-0.2-0.5c0-0.1-0.1-0.1-0.1-0.1
				C5,6,5,6,5,5.6V4C5,3.7,5,3.6,5.1,3.4z M2,4C1.6,4,1.2,4.4,1.2,4.8c0,0.4,0.3,0.8,0.8,0.8c0.4,0,0.8-0.4,0.8-0.8
				C2.8,4.4,2.4,4,2,4z M10.8,3.4c0,0,0.1-0.1,0.1-0.1C11,3.1,11,2.9,11,2.8C11,2.3,10.7,2,10.2,2l0,0C9.8,2,9.4,2.3,9.4,2.8
				c0,0.2,0.1,0.3,0.2,0.5c0,0.1,0.1,0.1,0.1,0.2c0.1,0.2,0.2,0.3,0.2,0.5v1.7C9.8,6,9.8,6,9.7,6.2c0,0-0.1,0.1-0.1,0.1
				C9.5,6.5,9.4,6.7,9.4,6.8c0,0.4,0.4,0.8,0.8,0.8h0c0.4,0,0.8-0.4,0.8-0.8c0-0.2-0.1-0.3-0.2-0.5c0-0.1-0.1-0.1-0.1-0.1
				C10.7,6,10.6,6,10.6,5.6V4C10.6,3.7,10.7,3.6,10.8,3.4z M12.8,4C12.4,4,12,4.4,12,4.8c0,0.4,0.3,0.8,0.8,0.8
				c0.4,0,0.8-0.4,0.8-0.8C13.6,4.4,13.2,4,12.8,4z M8,3.7C7.8,3.5,7.8,3.4,7.8,3.3V3.1c0-0.3,0.1-0.4,0.2-0.5C8,2.6,8,2.6,8,2.5
				C8.1,2.3,8.2,2.2,8.2,2c0-0.4-0.4-0.8-0.8-0.8C6.9,1.2,6.6,1.6,6.6,2c0,0.2,0.1,0.3,0.2,0.5c0,0.1,0.1,0.1,0.1,0.2
				C6.9,2.8,7,2.9,7,3.1v0.2c0,0,0,0.3-0.3,0.4h0C6.3,4,6.1,4.4,6.1,4.8c0,0.4,0.2,0.8,0.6,1.1c0,0,0.3,0.2,0.3,0.4v0.2
				c0,0.4-0.3,0.7-0.3,0.7C6.6,7.3,6.6,7.4,6.6,7.6c0,0.4,0.4,0.8,0.8,0.8h0c0.4,0,0.8-0.4,0.8-0.8c0-0.2-0.1-0.3-0.2-0.5
				c0,0-0.3-0.3-0.3-0.7V6.3h0c0,0,0-0.2,0.3-0.5c0,0,0.6-0.4,0.6-1.1C8.7,4.3,8.4,3.9,8,3.7z"/>
			<g>
				<path d="M29.3,8.8c0,0.1,0,0.2-0.1,0.2c0,0.1-0.1,0.1-0.2,0.1c-0.1,0-0.2,0-0.3,0c-0.1,0-0.2,0-0.3,0c-0.1,0-0.2,0-0.3,0
					c-0.1,0-0.2,0-0.3-0.1C27.8,9,27.7,9,27.7,9c0-0.1-0.1-0.1-0.1-0.2l0-4.3c0-0.1,0-0.2,0.1-0.2c0,0,0.1-0.1,0.2-0.1
					c0.1,0,0.2,0,0.3-0.1c0.1,0,0.2,0,0.3,0c0.1,0,0.2,0,0.3,0c0.1,0,0.2,0,0.3,0.1c0.1,0,0.1,0.1,0.2,0.1c0,0.1,0.1,0.1,0.1,0.2
					L29.3,8.8z M27.6,2.3c0-0.1,0-0.2,0.1-0.2c0,0,0.1-0.1,0.2-0.1C28,2,28.1,2,28.2,2c0.1,0,0.2,0,0.3,0c0.1,0,0.2,0,0.3,0
					C28.9,2,29,2,29.1,2c0.1,0,0.1,0.1,0.2,0.1c0,0.1,0.1,0.1,0.1,0.2l0,0.7c0,0.1,0,0.2-0.1,0.2c0,0.1-0.1,0.1-0.2,0.1
					c-0.1,0-0.2,0-0.3,0c-0.1,0-0.2,0-0.3,0c-0.1,0-0.2,0-0.3,0c-0.1,0-0.2,0-0.3-0.1c-0.1,0-0.1-0.1-0.2-0.1c0-0.1-0.1-0.1-0.1-0.2
					L27.6,2.3z"/>
				<path d="M32.5,8.8c0,0.1,0,0.2-0.1,0.2c0,0.1-0.1,0.1-0.2,0.1c-0.1,0-0.2,0-0.3,0c-0.1,0-0.2,0-0.3,0c-0.1,0-0.2,0-0.3,0
					c-0.1,0-0.2,0-0.3-0.1C30.9,9,30.9,9,30.8,9c0-0.1-0.1-0.1-0.1-0.2l0-6.4c0-0.1,0-0.1,0-0.2c0-0.1,0.1-0.1,0.1-0.1
					c0,0,0.1,0,0.2-0.1c0.1,0,0.2,0,0.3,0c0.1,0,0.2,0,0.3,0C31.8,2,31.9,2,32,2c0.1,0,0.2,0.1,0.3,0.1c0.1,0.1,0.1,0.1,0.1,0.2
					L32.5,8.8z"/>
				<path d="M29.3,8.8c0,0.1,0,0.2-0.1,0.2c0,0.1-0.1,0.1-0.2,0.1c-0.1,0-0.2,0-0.3,0c-0.1,0-0.2,0-0.3,0c-0.1,0-0.2,0-0.3,0
					c-0.1,0-0.2,0-0.3-0.1C27.8,9,27.7,9,27.7,9c0-0.1-0.1-0.1-0.1-0.2l0-4.3c0-0.1,0-0.2,0.1-0.2c0,0,0.1-0.1,0.2-0.1
					c0.1,0,0.2,0,0.3-0.1c0.1,0,0.2,0,0.3,0c0.1,0,0.2,0,0.3,0c0.1,0,0.2,0,0.3,0.1c0.1,0,0.1,0.1,0.2,0.1c0,0.1,0.1,0.1,0.1,0.2
					L29.3,8.8z"/>
				<path d="M26.2,5.9l0-0.3c0-0.2-0.1-0.4-0.2-0.6c-0.1-0.2-0.3-0.3-0.4-0.4c-0.2-0.1-0.4-0.2-0.7-0.3c-0.2-0.1-0.5-0.1-0.8-0.2
					c-0.3,0-2.8-0.3-3.5,0.7c-0.2,0.3-0.3,0.5-0.4,0.9c-0.1,0.3-0.1,0.7-0.1,1.1V6.6c0,0.4,0,0.7,0.1,1c0,0.3,0.2,0.6,0.3,0.8
					c0.2,0.2,0.4,0.4,0.7,0.5c0.3,0.1,0.7,0.2,1.2,0.2c0.2,0,0.3,0,0.4,0c0.1,0,0.2,0,0.4,0c0.1,0,0.5-0.1,0.4-0.6
					c-0.1-0.6-0.5-0.5-0.6-0.5c0,0,0,0,0,0c-0.1,0-0.2,0-0.3,0c-0.2,0-0.8,0-0.9-0.6c0-0.1,0-0.3,0-0.5l0-0.3c0-0.2,0-0.4,0-0.6
					c0.1-0.8,0.8-0.8,1.8-0.7c0.2,0,0.3,0.1,0.4,0.2c0.1,0.1,0.2,0.2,0.2,0.3c0,0.1,0.1,0.2,0.1,0.3l0,0.5l0,0l0,2.1
					c0,0.1,0,0.1,0.1,0.2c0,0.1,0.1,0.1,0.2,0.1c0.1,0,0.2,0,0.3,0.1c0.1,0,0.2,0,0.3,0c0.1,0,0.2,0,0.3,0c0.1,0,0.2,0,0.3,0
					c0.1,0,0.1-0.1,0.2-0.1c0-0.1,0.1-0.1,0.1-0.2l0-2.1l0,0l0-0.1L26.2,5.9C26.2,5.9,26.2,5.9,26.2,5.9z"/>
				<path d="M19.4,8.1c0-0.1,0-0.1-0.1-0.1c0,0-0.1-0.1-0.2-0.1c-0.1,0-0.2,0-0.3,0c-0.1,0-0.1,0-0.2,0c-0.1,0-0.1,0-0.2,0
					c-0.1,0-0.1,0-0.2,0c-0.1,0-0.2,0-0.3,0c-0.2,0-0.4,0-0.6,0c-0.1,0-0.2-0.1-0.3-0.1C17.1,7.7,17,7.6,17,7.5c0-0.1,0-0.2,0-0.3
					l0-2l0.6,0c0.3,0,0.5,0,0.7,0c0.2,0,0.3,0,0.4,0c0.1,0,0.1,0,0.2-0.1C18.9,5.2,19,5.1,19,5c0-0.1,0.1-0.1,0.1-0.2
					c0-0.1,0-0.1,0-0.2c0-0.1,0-0.2-0.1-0.3C19,4.3,19,4.2,18.9,4.2c-0.1,0-0.2-0.1-0.3-0.1c-0.1,0-0.2,0-0.3,0c-0.1,0-0.2,0-0.3,0
					c-0.1,0-0.2,0-0.3,0l-0.6,0l0-0.7c0-0.1,0-0.2-0.1-0.2c0,0-0.1-0.1-0.2-0.1c-0.1,0-0.2,0-0.3-0.1c-0.1,0-0.2,0-0.3,0
					c-0.1,0-0.2,0-0.3,0c-0.1,0-0.2,0-0.3,0.1c-0.1,0-0.1,0.1-0.2,0.1c0,0.1-0.1,0.1-0.1,0.2l0,0.7c0,0,0,2.2,0,2.2l0,0l0,1.4
					c0,0.2,0,0.4,0.1,0.5c0.1,0.1,0.2,0.3,0.3,0.4c0.1,0.1,0.3,0.2,0.4,0.3C16.3,8.9,16.5,9,16.6,9c0.2,0,0.4,0.1,0.6,0.1
					c0.2,0,0.4,0,0.5,0c0.5,0,0.9-0.1,1.2-0.2c0.3-0.1,0.4-0.3,0.4-0.6C19.4,8.3,19.4,8.2,19.4,8.1z"/>
			</g>
		</g>
	</g>
</g>
<g>
</g>
<g>
</g>
<g>
</g>
<g>
</g>
<g>
</g>
<g>
</g>
</svg>
